<?xml version="1.0" encoding="UTF-8"?>
<svg id="Ebene_2" data-name="Ebene 2" xmlns="http://www.w3.org/2000/svg" viewBox="0 0 183.52 59.25">
  <defs>
    <style>
      .cls-1 {
        stroke-width: 1.5px;
      }

      .cls-1, .cls-2 {
        fill: none;
        stroke: #e0ad1e;
        stroke-miterlimit: 10;
      }

      .cls-3 {
        fill: #e0ad1e;
      }

      .cls-4 {
        fill: #fff;
      }

      .cls-2 {
        stroke-width: 2px;
      }
    </style>
  </defs>
  <g id="Ebene_1-2" data-name="Ebene 1">
    <g>
      <path class="cls-2" d="m6.22,40.33h-2.17c-1.68,0-3.05-1.77-3.05-3.95V4.95c0-2.18,1.37-3.95,3.05-3.95h53.9c1.68,0,3.05,1.77,3.05,3.95v31.43c0,2.18-1.37,3.95-3.05,3.95H22.03c-.38,0-.74.18-1.01.49l-12.38,14.18c-.3.35-.88.13-.88-.33l-.02-12.37c0-1.09-.68-1.97-1.53-1.97Z"/>
      <path class="cls-1" d="m42.02,13.47l-14.72,3.23c-.1.02-.11.17,0,.19l17.87,4.98c.1.03.1.17,0,.19l-27.54,5.5"/>
      <path class="cls-3" d="m16,32.17c2.76,0,5-2.24,5-5s-2.24-5-5-5-5,2.24-5,5,2.24,5,5,5Z"/>
      <path class="cls-3" d="m45.5,25c1.93,0,3.5-1.57,3.5-3.5s-1.57-3.5-3.5-3.5-3.5,1.57-3.5,3.5,1.57,3.5,3.5,3.5Z"/>
      <path class="cls-3" d="m27.25,19c1.24,0,2.25-1.01,2.25-2.25s-1.01-2.25-2.25-2.25-2.25,1.01-2.25,2.25,1.01,2.25,2.25,2.25Z"/>
      <path class="cls-3" d="m41.53,15c.83,0,1.5-.67,1.5-1.5s-.67-1.5-1.5-1.5-1.5.67-1.5,1.5.67,1.5,1.5,1.5Z"/>
      <path class="cls-4" d="m90.44,25V6.49h-5.85v-2.49h14.31v2.49h-5.85v18.51h-2.61Zm9.9,0v-15.33h2.61v2.01c.35-.78.83-1.37,1.44-1.77.62-.4,1.35-.6,2.19-.6.93,0,1.72.26,2.37.78l-.39,2.46c-.33-.23-.68-.4-1.04-.49-.35-.11-.74-.16-1.15-.16-.69,0-1.29.18-1.8.55-.51.37-.91.89-1.2,1.56-.28.67-.42,1.45-.42,2.36v8.64h-2.61Zm15.51.36c-1.66,0-2.97-.46-3.92-1.38-.95-.92-1.43-2.18-1.43-3.78,0-1.03.24-1.93.71-2.69.47-.76,1.14-1.34,2-1.75.86-.42,1.87-.63,3.03-.63.75,0,1.45.09,2.1.26.66.16,1.28.41,1.86.74v-1.08c0-1.19-.27-2.06-.81-2.61-.54-.56-1.38-.84-2.52-.84-.73,0-1.49.14-2.28.4-.78.27-1.51.65-2.19,1.12l-.75-2.19c.77-.51,1.65-.91,2.62-1.19.99-.29,1.97-.43,2.93-.43,1.82,0,3.18.46,4.1,1.39.91.92,1.36,2.3,1.36,4.12v10.17h-2.46v-1.41c-.6.57-1.28,1.01-2.03,1.32-.75.3-1.53.45-2.32.45h0Zm.39-2.28c.71,0,1.41-.17,2.1-.52.7-.35,1.32-.85,1.86-1.49v-2.64c-.51-.32-1.09-.57-1.74-.75s-1.27-.27-1.86-.27c-1.12,0-2.01.26-2.65.76-.65.5-.98,1.19-.98,2.06s.29,1.58.87,2.09c.58.51,1.38.76,2.4.76Zm15.49,2.28c-1.08,0-2.12-.23-3.12-.69-.99-.47-1.8-1.1-2.43-1.89l1.86-1.59c.54.58,1.14,1.03,1.8,1.35s1.31.48,1.95.48c.9,0,1.6-.17,2.1-.51.5-.35.75-.83.75-1.44,0-.4-.12-.76-.35-1.08-.22-.32-.59-.62-1.11-.91-.51-.29-1.2-.6-2.05-.92-1.69-.63-2.91-1.32-3.65-2.06-.73-.74-1.1-1.65-1.1-2.74,0-1.2.47-2.17,1.42-2.92.96-.75,2.21-1.12,3.74-1.12,1.05,0,2.01.2,2.89.6.88.39,1.64.96,2.26,1.71l-1.8,1.5c-.92-.98-2.05-1.47-3.39-1.47-.79,0-1.42.16-1.88.47-.45.3-.68.72-.68,1.24s.25.96.76,1.35c.52.38,1.46.82,2.8,1.32,1.1.4,1.99.83,2.67,1.3.69.47,1.19,1.01,1.5,1.61.32.6.48,1.29.48,2.07,0,1.35-.49,2.41-1.46,3.19-.97.77-2.31,1.16-4.01,1.16h.05Zm14.06,0c-1.08,0-2.12-.23-3.12-.69-.99-.47-1.8-1.1-2.43-1.89l1.86-1.59c.54.58,1.14,1.03,1.8,1.35.66.32,1.31.48,1.95.48.9,0,1.6-.17,2.1-.51.5-.35.75-.83.75-1.44,0-.4-.12-.76-.35-1.08-.22-.32-.59-.62-1.11-.91-.51-.29-1.19-.6-2.05-.92-1.69-.63-2.9-1.32-3.65-2.06-.73-.74-1.1-1.65-1.1-2.74,0-1.2.48-2.17,1.43-2.92.96-.75,2.21-1.12,3.74-1.12,1.05,0,2.01.2,2.9.6.88.39,1.63.96,2.26,1.71l-1.8,1.5c-.92-.98-2.05-1.47-3.39-1.47-.79,0-1.42.16-1.88.47-.45.3-.68.72-.68,1.24s.26.96.76,1.35c.52.38,1.46.82,2.8,1.32,1.1.4,1.99.83,2.67,1.3.69.47,1.19,1.01,1.5,1.61.32.6.48,1.29.48,2.07,0,1.35-.49,2.41-1.46,3.19-.97.77-2.3,1.16-4.01,1.16h.03Zm15.15,0c-1.4,0-2.61-.35-3.63-1.03-1.02-.69-1.8-1.64-2.35-2.85-.55-1.21-.82-2.6-.82-4.16,0-1.69.28-3.13.85-4.32.57-1.2,1.36-2.11,2.38-2.74,1.02-.63,2.21-.94,3.57-.94,1.15,0,2.21.26,3.16.78.96.51,1.73,1.31,2.29,2.39.58,1.07.87,2.44.87,4.12,0,.24,0,.52-.03.84,0,.31-.03.63-.06.96h-10.38c.1.93.33,1.75.69,2.44.36.7.83,1.25,1.42,1.65.59.39,1.29.58,2.09.58.65,0,1.25-.11,1.8-.34.56-.23,1.08-.59,1.56-1.07l1.53,1.71c-.57.57-1.28,1.05-2.13,1.43-.84.37-1.78.56-2.82.56h.01Zm-4.17-9.24h7.86c0-.87-.15-1.65-.44-2.33-.28-.69-.69-1.23-1.24-1.62s-1.22-.59-2.01-.59c-1.11,0-2.07.36-2.87,1.08-.79.72-1.23,1.87-1.3,3.45h0Zm14.69,8.88v-15.33h2.61v1.56c.47-.65,1.04-1.13,1.7-1.44.66-.32,1.41-.48,2.26-.48,1.86,0,3.24.56,4.14,1.69.9,1.12,1.35,2.85,1.35,5.18v8.82h-2.61v-9.27c0-1.29-.29-2.28-.87-2.97-.57-.7-1.38-1.05-2.43-1.05-1.17,0-2.06.34-2.66,1.01-.59.66-.88,1.64-.88,2.95v9.33h-2.61Zm-79.42,32.36c-1.22,0-2.32-.2-3.31-.6-.99-.41-1.83-.97-2.52-1.66-.68-.71-1.17-1.51-1.49-2.42l2.46-.9c.42.93,1.06,1.69,1.91,2.26.86.57,1.86.86,3.01.86,1.26,0,2.26-.3,3.01-.9.75-.61,1.12-1.49,1.12-2.64,0-.81-.22-1.49-.68-2.04-.45-.55-1.03-1.01-1.75-1.38-.72-.38-1.49-.72-2.31-1.02-.73-.27-1.46-.57-2.19-.9-.73-.33-1.4-.72-2-1.17-.59-.46-1.07-1.01-1.42-1.66-.36-.66-.54-1.44-.54-2.35s.25-1.8.76-2.58c.51-.79,1.24-1.42,2.2-1.89.96-.48,2.12-.72,3.48-.72,1.11,0,2.08.17,2.93.49.85.32,1.54.77,2.08,1.34.55.56.93,1.2,1.14,1.92l-2.4.81c-.25-.59-.71-1.09-1.38-1.5-.66-.42-1.51-.63-2.55-.63-1.11,0-1.99.24-2.62.74-.63.49-.94,1.17-.94,2.03,0,.65.21,1.19.63,1.63.43.43.99.81,1.68,1.12.69.32,1.43.63,2.22.93.74.28,1.48.6,2.22.96.75.35,1.43.78,2.06,1.29s1.14,1.13,1.51,1.88c.38.73.57,1.61.57,2.65,0,1.29-.3,2.39-.9,3.28-.6.9-1.42,1.59-2.46,2.07-1.04.47-2.22.71-3.54.71h.01Zm16.32,0c-1.32,0-2.46-.32-3.41-.96-.95-.65-1.68-1.57-2.19-2.76-.51-1.2-.76-2.63-.76-4.29s.26-3.1.78-4.31c.52-1.2,1.26-2.12,2.22-2.76.97-.65,2.13-.97,3.48-.97s2.44.31,3.36.91c.92.61,1.59,1.5,2.01,2.66l-2.46.9c-.25-.66-.62-1.16-1.12-1.51-.49-.35-1.08-.52-1.76-.52-1.24,0-2.19.48-2.85,1.44-.66.96-.99,2.35-.99,4.17s.32,3.15.97,4.11c.65.96,1.57,1.44,2.78,1.44.77,0,1.42-.2,1.96-.6.55-.4.94-.96,1.15-1.68l2.43.81c-.37,1.26-1.04,2.23-2.02,2.91-.98.68-2.18,1.02-3.58,1.02h0Zm15.65,0c-2.1,0-3.76-.72-4.97-2.15-1.21-1.44-1.82-3.4-1.82-5.87,0-1.65.28-3.07.83-4.27.55-1.2,1.33-2.12,2.34-2.78,1.02-.66,2.23-.99,3.62-.99s2.6.32,3.61.97c1.02.64,1.8,1.56,2.34,2.76.55,1.2.82,2.62.82,4.28s-.27,3.08-.82,4.29c-.55,1.2-1.33,2.12-2.35,2.77-1.01.65-2.21.98-3.6.98h0Zm0-2.43c1.29,0,2.3-.49,3.03-1.49.74-1,1.11-2.38,1.11-4.12s-.37-3.13-1.11-4.12c-.73-.99-1.74-1.49-3.03-1.49s-2.32.5-3.05,1.49c-.73.98-1.09,2.37-1.09,4.15s.36,3.12,1.09,4.11c.73.98,1.75,1.47,3.05,1.47Zm16.28,2.43c-1.89,0-3.29-.56-4.21-1.68-.91-1.12-1.37-2.84-1.37-5.16v-8.85h2.61v9.24c0,1.3.29,2.3.85,2.99.57.69,1.39,1.03,2.45,1.03,1.17,0,2.05-.33,2.64-1.01.6-.67.9-1.65.9-2.95v-9.3h2.61v15.33h-2.61v-1.47c-.49.63-1.04,1.1-1.66,1.4-.61.29-1.35.44-2.21.44h0Zm15.73,0c-1.05,0-1.85-.32-2.41-.94-.55-.63-.82-1.53-.82-2.72v-9.75h-2.49v-2.28h2.49v-5.07l2.61-1.26v6.33h3.78v2.28h-3.78v8.88c0,.73.12,1.26.38,1.6.26.33.66.49,1.21.49.7,0,1.46-.27,2.28-.81l-.3,2.55c-.45.24-.92.42-1.41.53-.48.11-.99.17-1.53.17h0Z"/>
      <path class="cls-3" d="m64.43,6h-3.44v30.38c0,2.18-1.37,3.95-3.05,3.95H22.02c-.38,0-.74.18-1.01.49l-4.31,4.93h29.75c.37,0,.74.16,1.01.45l12.39,12.9c.31.32.86.1.86-.35l.02-11.22c0-.99.68-1.8,1.53-1.8h2.17c1.69,0,3.06-1.61,3.06-3.59V9.59c0-1.98-1.36-3.59-3.06-3.59Z"/>
    </g>
  </g>
</svg>
