<svg xmlns="http://www.w3.org/2000/svg" viewBox="0 0 150.24 96.38" style="enable-background:new 0 0 150.24 96.38" xml:space="preserve">
    <style>
        .st1{fill:#009871}
    </style>
    <path style="fill:#fff" d="M0 0h150.24v96.38H0z" id="HG"/>
    <g id="Elemente">
        <path class="st1" d="M32.59 53.9V29.75h14.04l-.28 3.85h-9.07v6.97h8.51v3.85h-8.51v9.49h-4.69zM60.14 54.32c-6.48 0-10.99-4.27-10.99-12.5s4.59-12.5 11.03-12.5c6.44 0 10.96 4.27 10.96 12.5s-4.56 12.5-11 12.5zm.03-21.03c-3.82 0-6.09 2.77-6.09 8.54 0 5.71 2.28 8.54 6.09 8.54 3.75 0 6.06-2.84 6.06-8.54 0-5.78-2.31-8.54-6.06-8.54z"/>
        <path d="M93.25 53.9h-4.03l-9.94-15.09h-.07V53.9h-4.69V29.75h4.03l9.94 14.98h.07V29.75h4.69V53.9z" style="fill:#80cdec"/>
        <path class="st1" d="m112.53 53.9-2.1-6.51h-7.46l-2.1 6.51h-4.69l8.89-24.15h3.67l8.86 24.15h-5.07zm-5.77-18.13h-.07l-2.66 8.26h5.39l-2.66-8.26z"/>
        <path d="M32.64 66.62v-5h2.77l-.04.52h-2.09v1.82h1.92v.52h-1.92v2.14h-.64zM37.48 66.71c-.85 0-1.5-.58-1.5-1.83 0-1.26.75-1.83 1.59-1.83.85 0 1.5.57 1.5 1.83 0 1.25-.76 1.83-1.59 1.83zm.04-3.13c-.54 0-.94.41-.94 1.3 0 .88.39 1.3.94 1.3.56 0 .93-.42.93-1.3.01-.89-.38-1.3-.93-1.3zM41.67 63.67c-.04-.02-.13-.07-.32-.07-.46 0-.7.28-.8.49v2.53h-.59v-3.48h.54v.51h.01c.11-.25.34-.58.88-.58.14 0 .23.02.32.05l-.04.55zM44.13 63.87c-.12-.1-.38-.3-.77-.3-.38 0-.56.16-.56.36 0 .27.16.4.53.59l.26.13c.54.28.84.57.84 1.08 0 .53-.39.99-1.24.99-.58 0-.88-.23-1.04-.37l.22-.52c.15.15.41.36.83.36.44 0 .67-.17.67-.39 0-.33-.22-.46-.61-.67l-.26-.14c-.5-.27-.75-.56-.75-1.04 0-.52.46-.9 1.12-.9.56 0 .83.23.95.33l-.19.49zM47.52 63.82a1.14 1.14 0 0 0-.72-.25c-.63 0-1.09.36-1.09 1.26 0 1 .42 1.36 1.04 1.36.37 0 .6-.14.72-.23l.17.44c-.13.12-.41.31-1 .31-.91 0-1.54-.54-1.54-1.86 0-1.27.87-1.8 1.68-1.8.53 0 .78.2.93.3l-.19.47zM50.67 66.62v-2.06c0-.67-.2-.99-.7-.99-.47 0-.75.23-.91.38v2.67h-.59V61.5l.59-.07v2.07h.01c.17-.17.5-.44 1.04-.44.74 0 1.14.46 1.14 1.41v2.15h-.58zM55.01 66.62h-.54v-.39h-.01c-.11.13-.39.48-1.07.48-.72 0-1.11-.44-1.11-1.41v-2.15h.59v2.06c0 .69.2.99.67.99.49 0 .75-.24.89-.38v-2.67h.59v3.47zM58.29 66.62v-2.06c0-.67-.2-.99-.7-.99-.47 0-.75.23-.91.38v2.67h-.59v-3.48h.54v.39h.01c.14-.15.48-.48 1.08-.48.74 0 1.14.46 1.14 1.41v2.15h-.57zM62.75 63.6h-.53c.12.18.2.4.2.63 0 .74-.59 1.17-1.36 1.17-.1 0-.2-.01-.29-.02-.12.05-.29.15-.29.34 0 .14.11.25.37.25h.71c.73 0 1.15.3 1.15.92 0 .66-.63 1.27-1.84 1.27-.83 0-1.3-.32-1.3-.94 0-.53.4-.75.61-.85v-.01a.612.612 0 0 1-.22-.49c0-.36.32-.54.41-.58v-.01c-.36-.17-.59-.51-.59-1.03 0-.78.59-1.17 1.32-1.17.19 0 .36.03.52.09h1.2l-.07.43zm-2.26 2.88c-.18.11-.36.28-.36.62 0 .39.26.56.78.56.85 0 1.21-.33 1.21-.68 0-.33-.17-.46-.56-.46h-.77c-.12-.01-.21-.01-.3-.04zm.62-2.94c-.4 0-.75.19-.75.69 0 .5.36.69.74.69.4 0 .75-.19.75-.69 0-.5-.36-.69-.74-.69zM66.76 63.64h-.83v2.98h-.59v-2.98h-.48v-.41l.48-.09v-.59c0-.78.41-1.17 1.11-1.17.25 0 .42.09.46.11l-.08.51c-.05-.02-.2-.09-.39-.09-.34 0-.51.17-.51.65v.58h.91l-.08.5zM70.22 66.62h-.54v-.39h-.01c-.11.13-.39.48-1.07.48-.72 0-1.11-.44-1.11-1.41v-2.15h.59v2.06c0 .69.2.99.67.99.49 0 .75-.24.89-.38v-2.67h.59v3.47zm-2-4.11c-.2 0-.36-.14-.36-.37 0-.22.16-.37.36-.37.2 0 .36.15.36.37 0 .23-.16.37-.36.37zm1.24 0c-.2 0-.36-.14-.36-.37 0-.22.16-.37.36-.37.2 0 .36.15.36.37-.01.23-.17.37-.36.37zM73 63.67c-.04-.02-.13-.07-.32-.07-.46 0-.7.28-.8.49v2.53h-.59v-3.48h.54v.51h.01c.11-.25.34-.58.88-.58.14 0 .23.02.32.05l-.04.55zM79.26 66.62h-.59l-2.51-3.86h-.01v3.86h-.63v-5h.59l2.51 3.84h.01v-3.84h.63v5zM81.84 64.69h.29v-.27c0-.61-.24-.84-.69-.84-.42 0-.71.2-.86.32l-.22-.43c.18-.14.54-.41 1.19-.41.76 0 1.17.44 1.17 1.36v1.48c0 .3.03.63.04.72h-.56l-.02-.38h-.01c-.12.2-.42.47-.97.47-.57 0-.94-.41-.94-.99-.01-.72.68-1.03 1.58-1.03zm.29 1.17v-.75l-.33.01c-.66.03-.96.19-.96.56 0 .34.23.53.49.53.46 0 .67-.21.8-.35zM86.01 63.82a1.14 1.14 0 0 0-.72-.25c-.63 0-1.09.36-1.09 1.26 0 1 .42 1.36 1.04 1.36.37 0 .6-.14.72-.23l.17.44c-.13.12-.41.31-1 .31-.91 0-1.54-.54-1.54-1.86 0-1.27.87-1.8 1.68-1.8.53 0 .78.2.93.3l-.19.47zM89.17 66.62v-2.06c0-.67-.2-.99-.7-.99-.47 0-.75.23-.91.38v2.67h-.59V61.5l.59-.07v2.07h.01c.17-.17.5-.44 1.04-.44.74 0 1.14.46 1.14 1.41v2.15h-.58zM93 66.62v-2.06c0-.67-.2-.99-.7-.99-.47 0-.75.23-.91.38v2.67h-.59V61.5l.59-.07v2.07h.01c.17-.17.5-.44 1.04-.44.74 0 1.14.46 1.14 1.41v2.15H93zM96 64.69h.29v-.27c0-.61-.24-.84-.69-.84-.42 0-.71.2-.86.32l-.22-.43c.18-.14.54-.41 1.19-.41.76 0 1.17.44 1.17 1.36v1.48c0 .3.03.63.04.72h-.57l-.02-.38h-.01c-.12.2-.42.47-.97.47-.57 0-.94-.41-.94-.99 0-.72.68-1.03 1.59-1.03zm.29 1.17v-.75l-.33.01c-.66.03-.96.19-.96.56 0 .34.23.53.49.53.45 0 .67-.21.8-.35zM98.52 65.77c0 .33.1.43.33.43.12 0 .21-.03.25-.04l.04.42c-.04.02-.2.11-.48.11-.46 0-.72-.21-.72-.89v-4.3l.59-.07v4.34zM101.43 63.64h-.9v1.8c0 .54.14.75.52.75.19 0 .33-.07.41-.1l.06.47c-.06.04-.25.15-.62.15-.68 0-.95-.39-.95-1.19v-1.88h-.48v-.41l.48-.09.07-.97h.52v.97h.97l-.08.5zM102.53 62.3c-.23 0-.41-.16-.41-.41s.18-.42.41-.42.42.17.42.42-.19.41-.42.41zm.29 4.32h-.59v-3.48h.59v3.48zM106.73 63.6h-.53c.12.18.2.4.2.63 0 .74-.59 1.17-1.36 1.17-.1 0-.2-.01-.29-.02-.12.05-.29.15-.29.34 0 .14.11.25.37.25h.71c.73 0 1.15.3 1.15.92 0 .66-.63 1.27-1.84 1.27-.83 0-1.3-.32-1.3-.94 0-.53.4-.75.61-.85v-.01a.612.612 0 0 1-.22-.49c0-.36.32-.54.41-.58v-.01c-.36-.17-.59-.51-.59-1.03 0-.78.59-1.17 1.32-1.17.19 0 .36.03.52.09h1.2l-.07.43zm-2.26 2.88c-.18.11-.36.28-.36.62 0 .39.26.56.78.56.85 0 1.21-.33 1.21-.68 0-.33-.17-.46-.56-.46h-.77c-.12-.01-.22-.01-.3-.04zm.61-2.94c-.4 0-.75.19-.75.69 0 .5.36.69.74.69.4 0 .75-.19.75-.69 0-.5-.36-.69-.74-.69zM108.87 64.71l1.44 1.91h-.74L108.39 65h-.29v1.62h-.59V61.5l.59-.07v3.07h.3l1.14-1.36h.71l-1.38 1.57zM113.26 65.01h-2.02c.04.81.43 1.18 1.06 1.18.55 0 .82-.24.91-.33l.17.42c-.12.12-.41.43-1.15.43-.99 0-1.58-.57-1.58-1.87 0-1.22.72-1.78 1.51-1.78.72 0 1.17.49 1.17 1.36 0 .23-.03.42-.07.59zm-2.02-.46h1.52c.01-.09.01-.16.01-.23 0-.49-.25-.76-.67-.76-.48 0-.82.35-.86.99zM114.55 62.3c-.23 0-.41-.16-.41-.41s.18-.42.41-.42.42.17.42.42-.18.41-.42.41zm.29 4.32h-.59v-3.48h.59v3.48zM117.56 63.64h-.9v1.8c0 .54.14.75.52.75.19 0 .33-.07.41-.1l.06.47c-.06.04-.25.15-.62.15-.68 0-.95-.39-.95-1.19v-1.88h-.48v-.41l.48-.09.07-.97h.52v.97h.97l-.08.5z"/>
    </g>
</svg>
