<svg xmlns="http://www.w3.org/2000/svg" viewBox="0 0 272.12 181.413">
  <path d="M0 1360.63h2040.93L2040.94 0H.004z" style="fill:#fff;fill-opacity:1;fill-rule:nonzero;stroke:none" transform="matrix(.13333 0 0 -.13333 0 181.413)"/>
  <path d="M436.723 747.969c10.23-16.219 18.242-15.938 30.351-15.938-10 7.649-16.601 17.5-19.769 22.539l-18.711 29.918c-1.832 9.223-6.602 17.852-13.75 24.301 2.39.891 4.418 1.871 5.59 2.77-12.192 0-24.301 6.211-30.981 6.211-4.25 0-7.031-2.579-7.031-5.942.281-3.789 4.18-7.609 11.332-7.609 1.641 0 3.711.191 5.98.582 3.899-5.391 7.028-10.27 7.028-17.262 0-13.129-15.668-23.32-31.489-23.32-.89 0-1.75.031-2.609.109-1.449 3.242-6.211 8.672-6.211 14.891 0 10.429 6.789 18.902 6.789 29.211 0 6.41-3.121 10.39-4.328 12.039 1.949 1.793 4.059 4.019 4.57 5.543-1.14-.512-2.461-.543-4.421-.543-7.579 0-13.79 1.953-19.801 1.953-3.438 0-4.34-1.063-4.34-2.07 0-.352.043-.743.16-.942-1.289.512-2.5.82-3.949 1.09-1.75.359-3.668.512-5.699.512-7.34 0-9.922-3.043-9.922-5.703 0-2.231 1.761-6.25 3.75-9.379 2.851 1.449 6.25 2.429 7.812 2.429 3.91 0 7.34-3.711 9.18-8.089-2.621-.309-3.133-.43-5.742-.43-7.149 0-11.989 2.539-12.969 2.539-.121 0-.309-.039-.309-.199 0-1.008 2.028-3.629 6.008-5.071 5.242-1.961 13.129-2.738 14.422-2.968 0-.243-1.332-2.7-2.82-3.172-.313-.11-.539-.11-.93-.039-5.473 1.101-7 1.531-13.949 4.179-.231.082-.352-.039-.352-.269 0-2.731 7.11-8.828 13.508-11.129-5.348-6.84-11.988-13.789-15.109-24.383a30 30 0 0 0-2.66-.109c-15.821 0-31.481 10.191-31.481 23.32 0 6.992 3.121 11.871 7.031 17.262 2.262-.391 4.332-.582 5.981-.582 7.14 0 11.051 3.82 11.32 7.609 0 3.363-2.73 5.942-7.031 5.942-6.68 0-18.75-6.211-30.969-6.211 1.211-.899 3.199-1.879 5.578-2.77-7.148-6.449-11.91-15.078-13.75-24.301l-18.668-29.918c-3.16-5.039-9.808-14.89-19.808-22.539 12.066 0 20.117-.281 30.359 15.938l9.57 15.312a48 48 0 0 1 2.61-5.82l-19.063-30.512c-3.16-5.078-9.758-14.801-19.797-22.539 12.11 0 20.11-.269 30.348 15.942l16.402 26.25c1.25-1.293 2.539-2.582 3.911-3.793l-23.161-37.071c-3.211-5.078-9.73-14.808-19.812-22.5 12.109 0 20.121-.308 30.351 15.903l22.579 36.129a75 75 0 0 1 4.613-2.7l-27.582-44.14c-3.16-5.039-9.719-14.719-19.801-22.5 12.109 0 20.121-.27 30.391 15.898l28.359 45.434c1.68-.621 3.402-1.25 5.121-1.793l-32.07-51.328c-3.129-5-9.852-14.891-19.77-22.5 12.071 0 20.121-.282 30.309 15.898l34.18 54.68c.351-.039.703-.071 1.062-.149.93-2.968 1.559-5.75 1.559-8.48 0-17.192-11.25-32.379-24.809-44.102.859-.347 2.391-.508 3.75-.508 2.82 0 4.609.161 5.899.391-3.161-7.152-9.879-16.371-13.282-21.09-4.449.778-10.898 1.399-15.117 1.399-4.41 0-4.922-2.571-4.922-4.879 0-4.02 1.879-7.231 4.063-8.981.816 2.032 2.468 4.758 10.629 4.758.16 0 .468 0 .82-.039-2.383-2.648-9.84-8.668-9.84-13.551 0-3.199 3.508-8.047 8.199-8.047-.269 1.059-.269 1.989-.269 2.739 0 3.898 3.508 8.511 6.437 11.75-.078-.969-.039-.86-.039-1.989 0-9.293.86-13.589 6.762-13.589 2.891 0 4.879 1.597 5.59 2.07-3.832 3.547-4.031 6.328-4.031 11.519 0 1.368 0 2.7.039 4.528 0 1.211-.039 2.781-.188 3.953 2.109.269 2.969.269 4.57.269 0 0 8.399.668 10.43-3.711 2.258 2.11 5.578 5.04 5.578 8.282 0 2.148-1.008 4.609-5.347 4.609-1.641 0-6.801-1.012-11.09-1.012 1.168 2.571 6.328 10.11 10.777 15.582.66-2.113 1.723-4.41 4.063-6.293.347 3.524 2.378 14.653 7.886 21.172.672-4.41 1.524-8.898 1.524-18.429 0-23.129-5.582-40.243-17.383-43.481 1.531-2.691 4.812-5.082 8.172-5.082 4.289 0 6.679 4.891 9.058 9.492 1.25-3.39 4.692-11.75 8.161-11.75 3.48 0 6.921 8.36 8.171 11.75 2.379-4.601 4.758-9.492 9.059-9.492 3.398 0 6.641 2.391 8.16 5.082-11.789 3.238-17.379 20.352-17.379 43.481 0 9.531.86 14.019 1.52 18.429 5.508-6.519 7.578-17.648 7.89-21.172 2.348 1.883 3.399 4.18 4.071 6.293 4.449-5.472 9.609-13.011 10.777-15.582-4.301 0-9.461 1.012-11.098 1.012-4.332 0-5.351-2.461-5.351-4.609 0-3.242 3.32-6.172 5.59-8.282 2.031 4.379 10.429 3.711 10.429 3.711 1.641 0 2.5 0 4.61-.269-.199-1.172-.239-2.742-.199-3.953v-4.528c0-5.191-.192-7.972-4.02-11.519.699-.473 2.691-2.07 5.578-2.07 5.902 0 6.762 4.296 6.762 13.589 0 1.129.039 1.02-.039 1.989 2.929-3.239 6.449-7.852 6.449-11.75 0-.75.039-1.68-.27-2.739 4.68 0 8.2 4.848 8.2 8.047 0 4.883-7.461 10.903-9.84 13.551.39.039.66.039.82.039 8.16 0 9.801-2.726 10.621-4.758 2.188 1.75 4.059 4.961 4.059 8.981 0 2.308-.5 4.879-4.918 4.879-4.223 0-10.66-.621-15.121-1.399-3.391 4.719-10.11 13.938-13.281 21.09 1.289-.23 3.089-.391 5.902-.391 1.406 0 2.887.161 3.75.508-13.512 11.723-24.801 26.91-24.801 44.102 0 2.73.617 5.512 1.559 8.48.351.078.699.11 1.05.149l34.18-54.68c10.238-16.18 18.25-15.898 30.352-15.898-9.961 7.609-16.672 17.5-19.801 22.5l-32.07 51.328c1.757.543 3.437 1.172 5.121 1.793l28.398-45.434c10.231-16.168 18.238-15.898 30.352-15.898-10.082 7.781-16.602 17.461-19.813 22.5l-27.539 44.14c1.57.86 3.09 1.758 4.57 2.7l22.579-36.129c10.242-16.211 18.242-15.903 30.351-15.903-10.082 7.692-16.601 17.422-19.801 22.5l-23.168 37.071a57 57 0 0 1 3.868 3.793l16.453-26.25c10.226-16.211 18.238-15.942 30.347-15.942-10.039 7.738-16.597 17.461-19.808 22.539l-19.063 30.512c1.024 1.91 1.922 3.828 2.621 5.82zm-153.051 35.109c0 11.41 8.281 20.391 11.211 22.934.711-.153 1.41-.313 2.109-.473-3.121-3.789-8.59-10.109-8.59-18.508 0-16.679 17.813-31.172 38.012-31.172a54 54 0 0 1-.199-4.5c0-2.461.117-4.718.348-6.871-22.809.121-42.891 18.633-42.891 38.59m30.941-136.758-.16-.39h.391c6.41 0 9.539.468 11.609.789 1.09.109 1.871.269 2.692.269 1.636 0 2.929-.199 2.929-2.226 0-1.371-1.601-3.512-3.16-4.762-2.351 2.18-5.633 2.648-10.43 2.648-2.23 0-5.203-.429-6.761-.617l-.239-.043-.269-.039.078-.738c.191-1.332.43-2.973.43-5.242l-.039-1.989-.039-2.539c0-5.429.738-8.511 2.66-10.863-.473-.187-1.293-.348-1.801-.348-3.402 0-4.383 1.489-4.383 11.211 0 1.95-.066 3.789-.148 5l-.121 1.84-.387-.351c-5.043-3.828-10.192-10.668-10.512-15.782-1.519.973-3.16 3.161-3.16 4.84 0 2.813 4.219 6.992 9.059 11.832l2.769 2.821.402.347-.941.231c-1.059.281-2.969.75-4.648.75-5.43 0-8.832-1.02-10.942-3.321-.777 1.09-1.398 3.672-1.398 5.153 0 .98.187 1.64.578 2.027.473.473 1.211.473 1.883.473h.109c6.02 0 13.207-1.09 15.981-1.52l.199-.043.07.121c.508.661 11.957 15.891 14.93 23.981.66.269 1.25.469 2.461.469 2.258 0 2.886-1.52 3.508-3.868-7.149-8.711-11.598-15.472-13.2-20.121m61.719 23.989c1.211 0 1.789-.2 2.5-.469 2.973-8.09 14.41-23.32 14.883-23.981l.117-.121.152.043c2.821.43 9.969 1.52 15.981 1.52h.156c.621 0 1.363 0 1.832-.473.391-.387.59-1.047.59-2.027 0-1.481-.629-4.063-1.41-5.153-2.07 2.301-5.512 3.321-10.93 3.321-1.648 0-3.601-.469-4.648-.75l-.434-.11-.469-.121 3.121-3.168c4.891-4.84 9.071-9.019 9.071-11.832 0-1.679-1.641-3.867-3.129-4.84-.352 5.114-5.512 11.954-10.551 15.782l-.43.351-.07-1.84c-.043-1.211-.16-3.05-.16-5 0-9.722-1.02-11.211-4.383-11.211-.5 0-1.277.161-1.789.348 1.91 2.352 2.652 5.434 2.652 10.863l-.031 2.539-.039 1.989c0 2.269.231 3.91.43 5.242l.07.738-.5.082c-1.609.188-4.531.617-6.762.617-4.808 0-8.089-.468-10.429-2.648-1.559 1.25-3.168 3.391-3.168 4.762 0 2.027 1.25 2.226 2.929 2.226.821 0 1.61-.16 2.7-.269 2.07-.321 5.199-.789 11.597-.789h.391l-.117.39c-1.641 4.649-6.09 11.41-13.242 20.121.628 2.348 1.25 3.868 3.519 3.868m-26.488 132.972c-.742 2.969-2.223 6.008-4.18 8.321-1.75 2.07-4.641 4.527-8.59 4.527-1.801 0-4.769-.82-6.679-1.641-.704 1.293-2.114 4.41-2.114 5.821 0 1.441 2.461 2.929 7.153 2.929 10.308 0 16.48-4.648 16.48-12.457 0-2.781-1.09-5.281-2.07-7.5m4.609 10.188a13.3 13.3 0 0 1-2.5 5.902c.078 2.027.899 3.988 4.18 2.379-1.75-1.789-.43-5-.43-5s3.641 1.68 2.852 4.07c5.359-1.289 1.527-8.441-4.102-7.351m20.078-68.981c.274 2.231.434 4.532.434 6.871 0 1.289 0 2.821-.16 4.5 19.968.313 37.429 14.641 37.429 31.172 0 8.399-5.472 14.719-8.562 18.508.672.16 1.371.32 2.07.473 2.93-2.543 11.211-11.524 11.211-22.934 0-19.797-19.801-38.199-42.422-38.59M527.813 817.422h35v-200h-35z" style="fill:#231f20;fill-opacity:1;fill-rule:nonzero;stroke:none" transform="matrix(.13333 0 0 -.13333 0 181.413)"/>
  <path d="M527.813 618.43h35V417.41h-35z" style="fill:#ed1c24;fill-opacity:1;fill-rule:nonzero;stroke:none" transform="matrix(.13333 0 0 -.13333 0 181.413)"/>
  <path d="M527.813 417.422h35v-200h-35z" style="fill:#f2cf04;fill-opacity:1;fill-rule:nonzero;stroke:none" transform="matrix(.13333 0 0 -.13333 0 181.413)"/>
  <path d="M1411.72 787.93c6.01 0 8.63-3.95 8.63-13.321v-37.07h9.73v38.633c0 2.187-.12 4.219-.47 6.008 2.15 2.5 5.74 5.75 11.05 5.75 6.45 0 9.96-3.95 9.96-13.321v-37.07h9.69v38.633c0 13.707-5.97 20.43-17.5 20.43-7.46 0-12.73-4.454-15.23-7.704-2.66 5.161-7.46 7.704-13.95 7.704-7.89 0-12.81-5.313-14.37-7.93h-.24v6.476h-8.9v-57.609h9.72v44.41c1.68 2.031 5.39 5.981 11.88 5.981m-45.59-43.91h.24v-6.481h8.86v57.609h-9.68V751.09c-1.96-2.379-5.78-6.371-11.64-6.371-6.49 0-9.61 3.871-9.61 13.32v37.109h-9.73V757.34c0-15.59 6.37-21.25 16.56-21.25 8.75 0 13.91 5.898 15 7.93m-46.09 51.128h-9.73v-57.609h9.73zm-4.81 13.911c3.87 0 6.49 2.89 6.49 6.953 0 3.988-2.62 6.84-6.49 6.84-3.94 0-6.6-2.852-6.6-6.84 0-4.063 2.66-6.953 6.6-6.953m-13.32-13.789c-.93.351-2.5.941-5.27.941-7.3 0-10.43-4.301-12.11-8.871h-.23v7.808h-8.91v-57.609h9.73v42.223c1.44 3.867 4.68 7.808 10.82 7.808 2.61 0 4.29-.699 4.8-.929zm-38.28-52.34-3.59 6.832c-1.33-1.293-5.27-5.043-12.11-5.043-9.73 0-15 6.371-15.59 19.812h29.38c.35 2.77.74 6.25.74 11.168 0 13.789-6.72 20.903-17.66 20.903-11.99 0-21.95-9.141-21.95-29.532 0-21.718 9.1-30.98 23.63-30.98 10.94 0 15.59 5.16 17.15 6.84m-19.41 45.742c6.09 0 9.33-4.692 9.33-12.621 0-1.801-.11-3.36-.23-4.18h-20.86c.47 10.777 4.92 16.801 11.76 16.801m-27.38-50.043-1.29 7.769c-.98-.578-3.13-1.679-6.02-1.679-4.92 0-6.83 2.429-6.83 10.59v31.91h12.57l1.21 7.929h-13.78v16.063h-8.64l-1.09-16.063-6.95-1.437v-6.492h6.95V753.98c0-12.73 5.04-17.89 14.88-17.89 5.16 0 8.17 1.91 8.99 2.539m-39.11 51.84c-1.91 1.91-5.78 6.133-14.64 6.133-9.38 0-16.68-6.372-16.68-14.883 0-7.93 4.33-12.617 11.52-17.188l3.59-2.269c5.51-3.473 8.4-5.391 8.4-10.942 0-3.711-3.12-6.601-8.87-6.601-6.25 0-9.84 3.75-11.64 5.672l-4.68-7.7c2.26-2.382 6.95-6.601 16.21-6.601 11.76 0 18.36 7.07 18.36 16.211 0 8.519-4.81 13.199-12.62 17.89l-3.59 2.149c-5.16 3.129-7.54 5.512-7.54 9.84 0 3.359 2.73 6.14 7.89 6.14 5.43 0 8.79-3.359 10.08-4.808zm-43.9 4.679h-9.73v-57.609h9.73zm-4.81 13.911c3.83 0 6.49 2.89 6.49 6.953 0 3.988-2.66 6.84-6.49 6.84-3.98 0-6.6-2.852-6.6-6.84 0-4.063 2.62-6.953 6.6-6.953m-39.14-20.739c6.72 0 9.96-3.992 9.96-13.711v-37.07h9.73v37.813c0 15.578-6.48 21.25-16.8 21.25-9.02 0-14.18-5.903-15.23-7.93h-.24v6.476h-8.9v-57.609h9.72v44.41c1.92 2.379 5.9 6.371 11.76 6.371m-36.36 6.828h-9.69v-57.609h9.69zm-4.81 13.911c3.87 0 6.49 2.89 6.49 6.953 0 3.988-2.62 6.84-6.49 6.84-3.94 0-6.56-2.852-6.56-6.84 0-4.063 2.62-6.953 6.56-6.953m-68.007-21.129c5.981 0 8.641-3.95 8.641-13.321v-37.07h9.719v38.633c0 2.187-.11 4.219-.508 6.008 2.185 2.5 5.785 5.75 11.055 5.75 6.48 0 9.96-3.95 9.96-13.321v-37.07h9.73v38.633c0 13.707-6.02 20.43-17.54 20.43-7.42 0-12.697-4.454-15.237-7.704-2.609 5.161-7.421 7.704-13.902 7.704-7.93 0-12.848-5.313-14.418-7.93h-.23v6.476h-8.871v-57.609h9.73v44.41c1.68 2.031 5.391 5.981 11.871 5.981m-34.57 2.539c-1.91 1.91-5.781 6.133-14.649 6.133-9.332 0-16.679-6.372-16.679-14.883 0-7.93 4.34-12.617 11.527-17.188l3.59-2.269c5.551-3.473 8.402-5.391 8.402-10.942 0-3.711-3.121-6.601-8.871-6.601-6.25 0-9.84 3.75-11.64 5.672l-4.688-7.7c2.27-2.382 6.957-6.601 16.219-6.601 11.75 0 18.359 7.07 18.359 16.211 0 8.519-4.808 13.199-12.621 17.89l-3.598 2.149c-5.152 3.129-7.531 5.512-7.531 9.84 0 3.359 2.731 6.14 7.891 6.14 5.429 0 8.781-3.359 10.07-4.808zm-40.82-47.539-3.59 6.832c-1.328-1.293-5.27-5.043-12.11-5.043-9.73 0-15 6.371-15.59 19.812h29.379c.391 2.77.743 6.25.743 11.168 0 13.789-6.723 20.903-17.661 20.903-11.992 0-21.953-9.141-21.953-29.532 0-21.718 9.102-30.98 23.633-30.98 10.938 0 15.629 5.16 17.149 6.84m-19.411 45.742c6.09 0 9.332-4.692 9.332-12.621 0-1.801-.113-3.36-.23-4.18h-20.859c.468 10.777 4.918 16.801 11.757 16.801m-42.738-45h.238v-6.133h8.903v85.93l-9.723-1.09v-27.617c-1.801.738-4.457 1.449-8.168 1.449-12.223 0-25.43-7.422-25.43-30.711 0-21.012 9.219-29.41 20.161-29.41 9.097 0 12.929 5.781 14.019 7.582m-11.402 1.047c-6.719 0-12.699 5.32-12.699 21.14 0 16.321 7.07 22.071 16.058 22.071 3.473 0 5.781-.942 7.461-2.039v-35.5c-1.328-1.922-4.687-5.672-10.82-5.672m-54.34 43.601c6.723 0 9.961-3.992 9.961-13.711v-37.07h9.73v37.813c0 15.578-6.488 21.25-16.84 21.25-8.98 0-14.14-5.903-15.23-7.93h-.238v6.476h-8.864v-57.609h9.723v44.41c1.918 2.379 5.859 6.371 11.758 6.371m-45.508-44.3h.277v-6.481h8.864v57.609h-9.723V751.09c-1.918-2.379-5.738-6.371-11.641-6.371-6.488 0-9.609 3.871-9.609 13.32v37.109h-9.73V757.34c0-15.59 6.371-21.25 16.562-21.25 8.789 0 13.949 5.898 15 7.93m-55.191 16.679c0-9.488-5.27-14.527-17.5-14.527h-6.489v29.058h7.071c10.82 0 16.918-5.66 16.918-14.531m-1.559 38.16c0-9.488-5.859-15.347-17.039-15.347h-5.391v28.558h5.508c11.641 0 16.922-5.672 16.922-13.211m10.578.36c0 12.851-7.808 21.133-27.5 21.133h-15.937v-82.813h16.918c19.8 0 28.672 9.492 28.672 22.461 0 11.012-7.071 18.238-15.59 19.922v.226c7.187 1.922 13.437 7.543 13.437 19.071M1790.2 622.93l-3.6 6.832c-1.33-1.293-5.27-5.043-12.11-5.043-9.72 0-15 6.371-15.62 19.812h29.41c.35 2.77.74 6.25.74 11.168 0 13.789-6.72 20.903-17.65 20.903-11.99 0-21.96-9.141-21.96-29.532 0-21.718 9.11-30.98 23.64-30.98 10.93 0 15.58 5.16 17.15 6.84m-19.42 45.742c6.1 0 9.34-4.692 9.34-12.621 0-1.801-.12-3.36-.24-4.18h-20.86c.47 10.777 4.93 16.801 11.76 16.801m-33.63 6.476h-9.69v-57.609h9.69zm-4.77 13.911c3.83 0 6.45 2.89 6.45 6.953 0 3.988-2.62 6.84-6.45 6.84-3.98 0-6.6-2.852-6.6-6.84 0-4.063 2.62-6.953 6.6-6.953m-42.85-88.668c-6.83 0-10.19 3.121-10.19 9.218 0 5.782 3.12 8.512 5.86 10.071 1.32-.231 2.89-.352 4.45-.352h7.3c5.9 0 9.73-2.148 9.73-7.648 0-5.899-5.39-11.289-17.15-11.289m27.11 12.687c0 10.942-8.16 15.281-19.06 15.281h-7.35c-4.18 0-5.85 1.68-5.85 4.063 0 3.008 2.73 4.566 4.68 5.387.94-.118 1.92-.118 2.97-.118 11.29 0 19.92 7.348 19.92 19.571 0 3.828-.93 7.418-2.73 10.308h7.19l1.32 7.578h-17.53a20.7 20.7 0 0 1-7.66 1.454c-10.82 0-19.57-6.372-19.57-19.34 0-9.141 3.94-14.883 9.84-17.653v-.238c-1.44-.699-6.95-3.121-6.95-9.332 0-3.641 1.29-6.25 3.71-8.051v-.238c-2.66-1.441-9.61-5.539-9.61-14.059 0-9.961 6.6-15.582 18.83-15.582 17.07 0 27.85 8.629 27.85 20.969m-14.14 44.184c0-8.282-4.57-11.524-10.08-11.524-5.31 0-9.96 3.242-9.96 11.524 0 8.277 4.65 11.527 10.2 11.527 5.27 0 9.84-3.25 9.84-11.527m-49.69-10.942c0-15.23-4.69-21.601-12.61-21.601-7.9 0-12.7 6.371-12.7 21.601 0 15.282 4.65 22 12.58 22s12.73-6.718 12.73-22m-35.39 0c0-21.601 9.69-30.23 22.42-30.23 12.62 0 23.05 8.789 23.05 30.23 0 21.25-9.73 30.282-22.46 30.282-12.34 0-23.01-9.032-23.01-30.282m-15.12 57.149-9.72-1.09v-72.231c0-10.187 4.41-13.707 10.9-13.707 4.33 0 6.83 1.098 7.81 1.559l-.86 7.23c-.59-.23-1.8-.742-3.59-.742-3.36 0-4.54 1.684-4.54 6.481zm-31.95-57.149c0-15.23-4.65-21.601-12.58-21.601s-12.73 6.371-12.73 21.601c0 15.282 4.69 22 12.62 22s12.69-6.718 12.69-22m-35.39 0c0-21.601 9.73-30.23 22.46-30.23 12.58 0 23.01 8.789 23.01 30.23 0 21.25-9.69 30.282-22.42 30.282-12.35 0-23.05-9.032-23.05-30.282m-31.56 22c6.72 0 9.96-3.992 9.96-13.711v-37.07h9.73v37.813c0 15.578-6.49 21.25-16.8 21.25-8.99 0-14.18-5.903-15.24-7.93h-.23v6.476h-8.91v-57.609h9.73v44.41c1.91 2.379 5.9 6.371 11.76 6.371m-55.67 0c6.72 0 9.97-3.992 9.97-13.711v-37.07h9.72v37.813c0 15.226-6.37 21.25-16.44 21.25-9.26 0-13.56-5.551-14.77-7.352h-.23v34.219l-9.73-1.09v-84.84h9.73v44.41c1.91 2.379 5.86 6.371 11.75 6.371m-31.68 2.5c-1.79 2.032-5.89 5.782-14.64 5.782-11.41 0-24.11-8.051-24.11-30.161 0-22.543 10.2-30.351 23.01-30.351 9.03 0 13.44 4.219 15 6.019l-3.94 6.711c-1.21-1.32-4.22-4.101-10.08-4.101-8.28 0-13.91 5.551-13.91 22.461 0 15.242 6.45 21.14 14.73 21.14 5.78 0 8.79-3.25 9.84-4.34zm-47.89-47.89-3.59 6.832c-1.33-1.293-5.27-5.043-12.11-5.043-9.73 0-15 6.371-15.62 19.812h29.41c.35 2.77.7 6.25.7 11.168 0 13.789-6.72 20.903-17.61 20.903-12 0-21.96-9.141-21.96-29.532 0-21.718 9.1-30.98 23.64-30.98 10.89 0 15.58 5.16 17.14 6.84m-19.45 45.742c6.13 0 9.38-4.692 9.38-12.621 0-1.801-.12-3.36-.24-4.18h-20.9c.51 10.777 4.93 16.801 11.76 16.801m-18.24 31.68h-55.31v-8.282h22.11v-74.531h10.43v74.531h22.07zm-95.51-99.614c6.37 2.262 13.95 7.422 13.95 18.364 0 7.929-3.25 11.757-7.93 11.757-3.36 0-6.25-2.148-6.25-6.488 0-4.41 2.89-6.832 6.6-6.832h.35c0-6.961-3.71-10.078-8.75-12.578zm-36.6-.347c-6.84 0-10.2 3.121-10.2 9.218 0 5.782 3.13 8.512 5.9 10.071 1.29-.231 2.85-.352 4.42-.352h7.34c5.86 0 9.73-2.148 9.73-7.648 0-5.899-5.43-11.289-17.19-11.289m27.11 12.687c0 10.942-8.13 15.281-19.06 15.281h-7.31c-4.22 0-5.9 1.68-5.9 4.063 0 3.008 2.78 4.566 4.69 5.387.98-.118 1.91-.118 3.01-.118 11.29 0 19.92 7.348 19.92 19.571 0 3.828-.98 7.418-2.77 10.308h7.18l1.33 7.578h-17.5a20.8 20.8 0 0 1-7.69 1.454c-10.78 0-19.57-6.372-19.57-19.34 0-9.141 3.98-14.883 9.84-17.653v-.238c-1.44-.699-6.95-3.121-6.95-9.332 0-3.641 1.33-6.25 3.71-8.051v-.238c-2.62-1.441-9.61-5.539-9.61-14.059 0-9.961 6.6-15.582 18.87-15.582 17.03 0 27.81 8.629 27.81 20.969m-14.14 44.184c0-8.282-4.57-11.524-10.08-11.524-5.27 0-9.96 3.242-9.96 11.524 0 8.277 4.69 11.527 10.19 11.527 5.28 0 9.85-3.25 9.85-11.527m-61.56 11.058c6.71 0 9.96-3.992 9.96-13.711v-37.07h9.72v37.813c0 15.578-6.48 21.25-16.79 21.25-9.03 0-14.18-5.903-15.24-7.93h-.23v6.476h-8.91v-57.609h9.73v44.41c1.91 2.379 5.9 6.371 11.76 6.371m-45.47-44.3h.23v-6.481h8.87v57.609h-9.73V631.09c-1.91-2.379-5.74-6.371-11.64-6.371-6.44 0-9.57 3.871-9.57 13.32v37.109h-9.73V637.34c0-15.59 6.37-21.25 16.57-21.25 8.75 0 13.9 5.898 15 7.93m-65.39 44.3c6.71 0 9.96-3.992 9.96-13.711v-37.07h9.68v37.813c0 15.226-6.32 21.25-16.44 21.25-9.22 0-13.56-5.551-14.73-7.352h-.27v34.219l-9.69-1.09v-84.84h9.69v44.41c1.95 2.379 5.9 6.371 11.8 6.371m-31.68 2.5c-1.84 2.032-5.9 5.782-14.648 5.782-11.41 0-24.141-8.051-24.141-30.161 0-22.543 10.192-30.351 23.043-30.351 9.026 0 13.436 4.219 14.996 6.019l-3.94 6.711c-1.21-1.32-4.216-4.101-10.075-4.101-8.281 0-13.942 5.551-13.942 22.461 0 15.242 6.481 21.14 14.758 21.14 5.782 0 8.749-3.25 9.839-4.34zm-49.105-.351c-1.91 1.91-5.742 6.133-14.641 6.133-9.339 0-16.679-6.372-16.679-14.883 0-7.93 4.328-12.617 11.519-17.188l3.59-2.269c5.551-3.473 8.399-5.391 8.399-10.942 0-3.711-3.079-6.601-8.86-6.601-6.25 0-9.851 3.75-11.648 5.672l-4.684-7.7c2.301-2.382 6.953-6.601 16.211-6.601 11.762 0 18.359 7.07 18.359 16.211 0 8.519-4.808 13.199-12.617 17.89l-3.59 2.149c-5.16 3.129-7.543 5.512-7.543 9.84 0 3.359 2.731 6.14 7.93 6.14 5.391 0 8.75-3.359 10.082-4.808zm-36.953 4.801c-.969.351-2.539.941-5.27.941-7.347 0-10.468-4.301-12.148-8.871h-.231v7.808h-8.871v-57.609h9.731v42.223c1.441 3.867 4.68 7.808 10.781 7.808 2.649 0 4.328-.699 4.801-.929zm-48.828-28.95c0-15.23-4.68-21.601-12.61-21.601s-12.742 6.371-12.742 21.601c0 15.282 4.692 22 12.621 22s12.731-6.718 12.731-22m-35.43 0c0-21.601 9.731-30.23 22.469-30.23 12.57 0 23.039 8.789 23.039 30.23 0 21.25-9.719 30.282-22.457 30.282-12.344 0-23.051-9.032-23.051-30.282m-37.531-28.781v35.621h27.219v8.281h-27.219v30.629h29.531l.699 8.282h-40.66v-82.813zm-43.559 57.731c-.98.351-2.543.941-5.269.941-7.352 0-10.473-4.301-12.153-8.871h-.238v7.808h-8.859v-57.609h9.718v42.223c1.45 3.867 4.649 7.808 10.782 7.808 2.66 0 4.34-.699 4.808-.929zm-50.551-51.25h.282v-6.481h8.859v57.609h-9.723V631.09c-1.918-2.379-5.738-6.371-11.636-6.371-6.492 0-9.614 3.871-9.614 13.32v37.109h-9.726V637.34c0-15.59 6.367-21.25 16.558-21.25 8.79 0 13.95 5.898 15 7.93m-14.718 67.699c0 3.711-2.543 6.09-5.782 6.09-3.25 0-5.75-2.379-5.75-6.09 0-3.75 2.5-6.141 5.75-6.141 3.239 0 5.782 2.391 5.782 6.141m18.468 0c0 3.711-2.539 6.09-5.781 6.09-3.238 0-5.738-2.379-5.738-6.09 0-3.75 2.5-6.141 5.738-6.141 3.242 0 5.781 2.391 5.781 6.141m-44.531-24.5 1.211 7.929h-12.969v10.321c0 7.531 2.5 10.07 7.071 10.07 2.539 0 4.34-.969 5.277-1.559l2.07 8.051c-.98.578-4.097 2.149-8.168 2.149-8.511 0-15.972-5.039-15.972-17.621v-11.52l-6.957-1.328v-6.492h6.957v-49.68h9.722v49.68zM1279.61 498.629l-1.33 7.769a11.7 11.7 0 0 0-5.98-1.679c-4.92 0-6.87 2.429-6.87 10.59v31.91h12.62l1.21 7.929h-13.83v16.063h-8.63l-1.06-16.063-6.99-1.437v-6.492h6.99V513.98c0-12.73 5.04-17.89 14.88-17.89 5.16 0 8.13 1.91 8.99 2.539m-34.57 56.641c-.94.351-2.5.941-5.27.941-7.31 0-10.43-4.301-12.11-8.871h-.24v7.808h-8.9v-57.609h9.72v42.223c1.45 3.867 4.69 7.808 10.82 7.808 2.62 0 4.3-.699 4.81-.929zm-60.7-6.95c6.71 0 9.96-3.992 9.96-13.711v-37.07h9.72v37.813c0 15.226-6.36 21.25-16.44 21.25-9.26 0-13.56-5.551-14.77-7.352h-.23v34.219l-9.73-1.09v-84.84h9.73v44.41c1.91 2.379 5.86 6.371 11.76 6.371m-45.75-25.59v-12.691c-1.17-1.801-3.94-5.668-9.57-5.668-4.8 0-7.69 3.008-7.69 8.91 0 6.328 4.92 8.981 14.18 9.328zm0 7.231h-2.97c-13.08 0-24.02-4.461-24.02-17.781 0-9.371 6.6-16.09 15.35-16.09 7.35 0 10.82 4.922 12.15 7.808h.24c.11-2.886.23-4.679.35-6.359h9.26c-.28 1.563-.75 7.07-.75 11.992v26.289c0 14.532-6.25 20.782-18 20.782-9.22 0-14.77-4.454-17.27-6.993l4.06-6.488c2.19 1.949 6.02 5.199 11.76 5.199 6.25 0 9.84-3.129 9.84-12.851zm-32.61 17.258 1.21 7.929h-12.97v10.321c0 7.531 2.5 10.07 7.07 10.07 2.54 0 4.33-.969 5.27-1.559l2.03 8.051c-.93.578-4.06 2.149-8.16 2.149-8.52 0-15.94-5.039-15.94-17.621v-11.52l-6.95-1.328v-6.492h6.95v-49.68h9.73v49.68zm-87.39.711c6.02 0 8.68-3.95 8.68-13.321v-37.07h9.68v38.633c0 2.187-.11 4.219-.47 6.008 2.15 2.5 5.79 5.75 11.06 5.75 6.48 0 9.96-3.95 9.96-13.321v-37.07h9.73v38.633c0 13.707-6.02 20.43-17.54 20.43-7.42 0-12.74-4.454-15.24-7.704-2.65 5.161-7.46 7.704-13.9 7.704-7.93 0-12.85-5.313-14.42-7.93h-.23v6.476h-8.908v-57.609h9.728v44.41c1.68 2.031 5.43 5.981 11.87 5.981m-45.578-43.91h.23v-6.481h8.91v57.609h-9.73V511.09c-1.91-2.379-5.777-6.371-11.641-6.371-6.476 0-9.609 3.871-9.609 13.32v37.109h-9.719V517.34c0-15.59 6.36-21.25 16.559-21.25 8.75 0 13.902 5.898 15 7.93m-55.43 18.71v-12.691c-1.211-1.801-3.988-5.668-9.609-5.668-4.809 0-7.7 3.008-7.7 8.91 0 6.328 4.93 8.981 14.18 9.328zm0 7.231h-3.008c-13.09 0-23.98-4.461-23.98-17.781 0-9.371 6.597-16.09 15.347-16.09 7.301 0 10.782 4.922 12.114 7.808h.226c.121-2.886.242-4.679.352-6.359h9.262c-.231 1.563-.704 7.07-.704 11.992v26.289c0 14.532-6.25 20.782-18.007 20.782-9.262 0-14.77-4.454-17.301-6.993l4.101-6.488c2.141 1.949 5.969 5.199 11.75 5.199 6.25 0 9.848-3.129 9.848-12.851zm-72.969 1.289h4.571c1.91 0 3.828.109 5.621.23l17.148-33.941h12.27l-19.45 36.481c9.489 4.058 14.18 12.339 14.18 23.16 0 15.242-9.379 23.172-29.301 23.172h-15.468v-82.813h10.429zm23.16 25.352c0-10.821-6.011-17.071-18.589-17.071h-4.571v32.539h5.039c12.34 0 18.121-5.039 18.121-15.468m-85.07-52.93h.231v-6.133h8.871v85.93l-9.731-1.09v-27.617c-1.801.738-4.41 1.449-8.121 1.449-12.269 0-25.469-7.422-25.469-30.711 0-21.012 9.25-29.41 20.149-29.41 9.14 0 12.969 5.781 14.07 7.582m-11.41 1.047c-6.719 0-12.738 5.32-12.738 21.14 0 16.321 7.109 22.071 16.097 22.071 3.473 0 5.743-.942 7.422-2.039v-35.5c-1.293-1.922-4.652-5.672-10.781-5.672m-54.379 43.601c6.719 0 9.969-3.992 9.969-13.711v-37.07h9.719v37.813c0 15.578-6.481 21.25-16.797 21.25-8.981 0-14.141-5.903-15.231-7.93h-.23v6.476h-8.871v-57.609h9.691v44.41c1.949 2.379 5.891 6.371 11.75 6.371m-45.461-44.3h.231v-6.481h8.91v57.609h-9.731V511.09c-1.91-2.379-5.781-6.371-11.64-6.371-6.489 0-9.61 3.871-9.61 13.32v37.109h-9.73V517.34c0-15.59 6.371-21.25 16.57-21.25 8.75 0 13.899 5.898 15 7.93M280.867 1111.61c-2.207 1.47-7.035 3.25-12.812 3.25-12.801 0-25.297-8.4-25.297-30.13 0-20.99 9.762-31.38 23.617-31.38 5.039 0 9.031.94 12.074 2.1v20.89l-6.398 1.46c-1.059.22-1.477.53-1.477 1.16 0 .94.739 2.2 1.156 3.15h23.938s.102-.63.102-1.16c0-1.68-.942-2.93-3.567-3.67l-2.414-.63v-21.94c-2.84-2.52-10.601-8.19-26.035-8.19-18.477 0-32.965 11.44-32.965 36.95 0 27.3 20.266 38.01 37.688 38.01 11.132 0 16.691-3.15 20.156-4.73.316-3.15.633-9.65.633-10.49 0-3.26-.946-5.36-3.676-5.36-.84 0-1.68.21-2.418.42zM333.652 1078.54c.211.94.528 2.73.528 4.51 0 5.77-2.102 10.71-8.192 10.71-6.195 0-9.867-4.94-10.597-15.22zm-18.371-5.56c.11-13.02 6.297-19.11 15.328-19.11 6.719 0 10.496 2.62 13.121 4.83 1.051-.84 1.575-2.63 1.575-3.57 0-2.62-6.926-8.61-18.578-8.61-12.914 0-22.575 7.35-22.575 25.62 0 18.26 11.024 27.6 22.996 27.6 11.86 0 17.84-7.24 17.84-17.74 0-2.73-.523-6.4-1.258-9.02zM383.605 1092.71h-12.804v-39.26l7.137-1.36c1.05-.22 1.468-.53 1.468-1.37 0-1.05-.734-2.63-1.047-2.94h-24.988s-.101.63-.101.95c0 1.88 1.257 2.72 3.253 3.46l3.567 1.26v39.26h-7.77s-.105.63-.105.95c0 1.99 1.262 3.04 3.258 3.56l4.617 1.26v1.06c0 16.9 10.289 25.09 19.316 25.09 5.25 0 7.352-2.31 7.352-5.57 0-2.62-1.574-4.09-3.153-4.93-.941 1.05-3.675 3.05-6.925 3.05-4.516 0-6.09-2.52-6.09-8.72 0-3.26.211-9.98.211-9.98h13.965zM422.535 1106.99c-3.355 0-5.769 2.31-5.769 5.67 0 3.57 2.414 5.88 5.769 5.88 3.153 0 5.57-2.31 5.57-5.88 0-3.36-2.417-5.67-5.57-5.67m-23.094-33.81c0-14.06 5.668-20.36 13.438-20.36 7.769 0 13.547 6.09 13.547 20.16 0 14.06-5.778 20.57-13.547 20.57s-13.438-6.19-13.438-20.37m4.09 33.81c-3.14 0-5.664 2.31-5.664 5.67 0 3.57 2.524 5.88 5.664 5.88 3.258 0 5.676-2.31 5.676-5.88 0-3.36-2.418-5.67-5.676-5.67m34.121-33.38c0-18.16-12.703-27.09-25.504-27.09-13.125 0-23.937 8.4-23.937 26.03 0 17.75 12.598 27.19 25.93 27.19 13.125 0 23.511-7.87 23.511-26.13M461.34 1090.09h.316c2.203 3.57 6.086 9.65 12.914 9.65 4.93 0 7.246-2.3 7.246-5.56 0-2.31-1.054-4.3-1.894-5.36-.844.43-3.465 1.58-7.031 1.58-5.774 0-8.711-2.31-10.918-5.35v-31.6l7.554-1.36c1.051-.22 1.473-.53 1.473-1.37 0-1.05-.84-2.63-1.051-2.94h-25.406s-.102.63-.102.95c0 1.88 1.258 2.72 3.254 3.46l3.668 1.26v38.84l-7.449 1.16s-.105.63-.105 1.05c0 1.78 1.367 3.04 3.886 3.25l14.278 1.37zM521.07 1090.3c-1.574 1.47-4.414 3.15-8.816 3.15-8.508 0-14.805-6.09-14.805-19.95 0-13.54 5.879-19 12.91-19 6.094 0 9.344 2.83 10.711 4.41zm10.602-36.64 7.664-1.05s.105-.42.105-.84c0-1.89-1.367-3.15-3.886-3.36l-13.86-1.26v6.82h-.308c-2.313-3.25-6.719-7.45-14.91-7.45-10.286 0-19.946 6.61-19.946 24.88 0 19.53 13.649 28.34 27.086 28.34 3.039 0 5.668-.52 7.453-.94v18.38l-7.453 1.04s-.101.74-.101 1.16c0 1.78 1.359 3.04 3.879 3.25l14.277 1.37zM574.402 1078.54c.207.94.524 2.73.524 4.51 0 5.77-2.102 10.71-8.188 10.71-6.191 0-9.871-4.94-10.605-15.22zm-18.375-5.56c.106-13.02 6.301-19.11 15.328-19.11 6.719 0 10.5 2.62 13.125 4.83 1.047-.84 1.575-2.63 1.575-3.57 0-2.62-6.93-8.61-18.586-8.61-12.91 0-22.567 7.35-22.567 25.62 0 18.26 11.024 27.6 22.989 27.6 11.863 0 17.847-7.24 17.847-17.74 0-2.73-.523-6.4-1.258-9.02zM610.609 1090.09h.317c2.203 3.57 6.086 9.65 12.91 9.65 4.934 0 7.246-2.3 7.246-5.56 0-2.31-1.055-4.3-1.894-5.36-.84.43-3.461 1.58-7.032 1.58-5.769 0-8.711-2.31-10.918-5.35v-31.6l7.559-1.36c1.051-.22 1.469-.53 1.469-1.37 0-1.05-.84-2.63-1.047-2.94h-25.406s-.102.63-.102.95c0 1.88 1.258 2.72 3.25 3.46l3.672 1.26v38.84l-7.449 1.16s-.11.63-.11 1.05c0 1.78 1.367 3.04 3.887 3.25l14.277 1.37zM669.875 1092.71h-14.379v-30.65c0-4.73 1.465-8.61 6.719-8.61 4.094 0 7.453 1.78 8.293 2.52.523-.84.945-2.42.945-3.46 0-1.06-3.676-5.99-13.23-5.99-9.551 0-13.332 5.57-13.332 13.65v32.54h-7.871s-.11.63-.11.95c0 1.99 1.262 3.14 3.254 3.56l5.149 1.26 2.41 14.18h7.773v-14.18h15.535zM732.977 1090.3c-1.575 1.47-4.407 3.15-8.821 3.15-8.5 0-14.797-6.09-14.797-19.95 0-13.54 5.879-19 12.914-19 6.086 0 9.34 2.83 10.704 4.41zm10.605-36.64 7.668-1.05s.102-.42.102-.84c0-1.89-1.364-3.15-3.883-3.36l-13.856-1.26v6.82h-.32c-2.309-3.25-6.719-7.45-14.906-7.45-10.289 0-19.946 6.61-19.946 24.88 0 19.53 13.649 28.34 27.086 28.34 3.043 0 5.668-.52 7.45-.94v18.38l-7.45 1.04s-.109.74-.109 1.16c0 1.78 1.367 3.04 3.887 3.25l14.277 1.37zM803.578 1053.66l7.66-1.05s.11-.42.11-.84c0-1.89-1.368-3.15-3.887-3.36l-13.859-1.26v6.93h-.204c-1.679-2.21-6.3-7.56-15.539-7.56-11.234 0-16.484 6.61-16.484 19v26.77l-7.449 1.16s-.11.63-.11 1.05c0 1.78 1.368 3.04 3.887 3.25l14.277 1.37v-33.07c0-9.56 5.04-11.76 9.661-11.76 5.347 0 8.918 2.31 11.336 5.04v32.96l-7.457 1.16s-.102.63-.102 1.05c0 1.78 1.363 3.04 3.883 3.25l14.277 1.37zM835.48 1090.09h.321c2.199 3.57 6.082 9.65 12.91 9.65 4.93 0 7.242-2.3 7.242-5.56 0-2.31-1.051-4.3-1.89-5.36-.84.43-3.465 1.58-7.036 1.58-5.769 0-8.707-2.31-10.914-5.35v-31.6l7.559-1.36c1.047-.22 1.469-.53 1.469-1.37 0-1.05-.84-2.63-1.051-2.94h-25.406s-.102.63-.102.95c0 1.88 1.262 2.72 3.254 3.46l3.672 1.26v38.84l-7.453 1.16s-.11.63-.11 1.05c0 1.78 1.371 3.04 3.891 3.25l14.277 1.37zM885.137 1093.45c-7.039 0-13.125-5.04-13.125-18.79 0-13.23 5.144-20.89 15.008-20.89 6.511 0 10.293 3.36 11.972 5.03.942-.94 1.68-2.62 1.68-3.57 0-2.62-5.777-8.71-17.324-8.71-13.649 0-22.465 8.61-22.465 25.93 0 17.74 11.859 27.29 26.035 27.29 11.547 0 14.484-5.66 14.484-8.71 0-2.83-1.367-5.46-5.347-6.3-1.578 3.68-3.996 8.72-10.918 8.72M925.098 1092.18h.215c2.097 2.52 7.136 7.56 16.16 7.56 10.5 0 16.484-6.19 16.484-18.47v-27.82l6.09-1.36c1.051-.22 1.469-.53 1.469-1.37 0-1.05-.84-2.63-1.051-2.94h-23.832s-.102.63-.102.95c0 1.88 1.258 2.83 3.254 3.46l3.465 1.26v26.56c0 8.92-4.828 11.65-10.18 11.65-6.515 0-9.976-2.84-11.972-4.83v-33.38l5.879-1.36c1.05-.22 1.472-.53 1.472-1.37 0-1.05-.738-2.63-1.054-2.94h-23.829s-.105.63-.105.95c0 1.88 1.258 2.83 3.254 3.46l3.68 1.26v63.73l-7.457 1.04s-.102.74-.102 1.16c0 1.78 1.359 3.04 3.879 3.25l14.383 1.37zM980.813 1046.41c-3.676 0-6.508 2.52-6.508 6.41 0 3.99 2.832 6.51 6.508 6.51 3.675 0 6.617-2.52 6.617-6.51 0-3.89-2.942-6.41-6.617-6.41m0 40.42c-3.676 0-6.508 2.52-6.508 6.41 0 3.98 2.832 6.5 6.508 6.5 3.675 0 6.617-2.52 6.617-6.5 0-3.89-2.942-6.41-6.617-6.41" style="fill:#231f20;fill-opacity:1;fill-rule:nonzero;stroke:none" transform="matrix(.13333 0 0 -.13333 0 181.413)"/>
</svg>
