
<svg viewBox="0 0 121.95 106.94" xmlns="http://www.w3.org/2000/svg"><path d="m10.97 72.79h-3.94c-3.05 0-5.53-3.21-5.53-7.16v-56.97c0-3.95 2.48-7.16 5.53-7.16h97.69c3.05 0 5.53 3.21 5.53 7.16v56.97c0 3.96-2.48 7.16-5.53 7.16h-65.1c-.68 0-1.33.33-1.83.89l-23.14 26.51c-.3.35-.88.13-.88-.33l-.03-23.5c0-1.97-1.24-3.57-2.77-3.57z" fill="none" stroke="#e0ad1e" stroke-miterlimit="10" stroke-width="3"/><path d="m75.86 24.1-26.68 5.85c-.18.04-.19.3 0 .35l32.38 9.02c.18.05.17.32 0 .35l-49.93 9.96" fill="none" stroke="#e0ad1e" stroke-miterlimit="10" stroke-width="2"/><g fill="#e0ad1e"><path d="m28.69 58c5.01 0 9.06-4.06 9.06-9.06s-4.06-9.06-9.06-9.06-9.06 4.06-9.06 9.06 4.06 9.06 9.06 9.06z"/><path d="m82.16 45c3.5 0 6.34-2.84 6.34-6.34s-2.84-6.34-6.34-6.34-6.34 2.84-6.34 6.34 2.84 6.34 6.34 6.34z"/><path d="m49.08 34.13c2.25 0 4.08-1.83 4.08-4.08s-1.83-4.08-4.08-4.08-4.08 1.83-4.08 4.08 1.83 4.08 4.08 4.08z"/><path d="m74.96 26.88c1.5 0 2.72-1.22 2.72-2.72s-1.22-2.72-2.72-2.72-2.72 1.22-2.72 2.72 1.22 2.72 2.72 2.72z"/><path d="m116.41 10.56h-5.23c-.56 0-1.02.46-1.02 1.02v54.05c0 3.96-2.48 7.16-5.53 7.16h-65.1c-.68 0-1.33.33-1.83.89l-6.34 7.26c-.57.66-.11 1.69.77 1.69h51.69c.68 0 1.34.29 1.83.82l22.27 23.18c.63.66 1.75.21 1.75-.7l.03-20.06c0-1.79 1.24-3.26 2.77-3.26v.02h3.94c3.07 0 5.54-2.92 5.54-6.51v-59.04c0-3.6-2.47-6.51-5.54-6.51z"/></g></svg>
