<?xml version="1.0" encoding="utf-8"?>
<!-- Generator: Adobe Illustrator 16.0.0, SVG Export Plug-In . SVG Version: 6.00 Build 0)  -->
<!DOCTYPE svg PUBLIC "-//W3C//DTD SVG 1.1//EN" "http://www.w3.org/Graphics/SVG/1.1/DTD/svg11.dtd">
<svg version="1.1" id="Ebene_1" xmlns="http://www.w3.org/2000/svg" xmlns:xlink="http://www.w3.org/1999/xlink" x="0px" y="0px"
	 width="118.707px" height="143.395px" viewBox="0 0 118.707 143.395" enable-background="new 0 0 118.707 143.395"
	 xml:space="preserve">
<g>
	<circle fill="#FDB51C" cx="59.353" cy="59.354" r="59.353"/>
	<g>
		<g>
			<polygon id="XMLID_27_" fill="#FABE28" points="17.808,101.762 59.354,143.395 100.898,101.762 			"/>
		</g>
		<g>
			<defs>
				<polygon id="SVGID_1_" points="17.808,101.762 59.354,143.395 100.898,101.762 				"/>
			</defs>
			<clipPath id="SVGID_2_">
				<use xlink:href="#SVGID_1_"  overflow="visible"/>
			</clipPath>
			<g clip-path="url(#SVGID_2_)">
				
					<image overflow="visible" opacity="0.4" enable-background="new    " width="554" height="554" xlink:href="8991E779DFE9B86B.png"  transform="matrix(0.2387 0 0 0.2387 -6.6528 -0.3728)">
				</image>
				<g>
					<circle fill="#FDB51C" cx="59.353" cy="59.354" r="59.359"/>
				</g>
			</g>
		</g>
	</g>
	<circle fill="#FABE28" cx="59.353" cy="59.354" r="59.353"/>
	<circle fill="#FFFFFF" cx="59.353" cy="59.354" r="52.73"/>
	<g>
		<g>
			<path fill="#FABE28" d="M22.986,70.673V33.302h26.267v7.634H32.169v8.062h15.482v7.634H32.169v14.041H22.986z"/>
			<path fill="#FABE28" d="M61.419,70.673h-9.183V33.302h9.183V70.673z"/>
			<path fill="#FABE28" d="M86.292,51.667L98.57,70.673h-9.609l-7.475-11.585l-7.422,11.585h-9.662l12.279-19.061L64.938,33.302
				h9.504l7.047,10.944l7.047-10.944h9.557L86.292,51.667z"/>
		</g>
		<g>
			<path fill="#FABE28" d="M35.73,88.046h-1.003V75.553l-4.801,8.881h-1.135l-4.801-8.881v12.493h-1.004V73.757h1.07l5.302,9.819
				l5.303-9.819h1.069V88.046z"/>
			<path fill="#FABE28" d="M44.176,88.046h-1.048v-5.531l-5.477-8.758h1.113l4.887,7.84l4.889-7.84h1.113l-5.478,8.758
				L44.176,88.046L44.176,88.046z"/>
			<g>
				<g>
					<path fill="#FABE28" d="M57.381,88.266c-1.8,0-3.371-0.569-4.546-1.646c-1.833-1.683-1.987-3.808-1.987-5.841
						c0-2.032,0.154-4.158,1.988-5.84c1.188-1.088,2.759-1.663,4.546-1.663c1.757,0,3.431,0.622,4.591,1.705
						c1.103,1.033,1.459,2.326,1.563,3.228l0.062,0.534h-3.79l-0.045-0.436c-0.046-0.447-0.206-0.785-0.548-1.169
						c-0.369-0.425-1.035-0.666-1.833-0.666c-0.721,0-1.413,0.272-1.897,0.746c-0.878,0.838-0.878,2.411-0.878,3.561
						c0,1.15,0,2.723,0.873,3.555c0.49,0.481,1.181,0.754,1.903,0.754c0.776,0,1.459-0.254,1.828-0.68
						c0.331-0.369,0.504-0.76,0.554-1.232l0.045-0.437h3.79l-0.062,0.535c-0.149,1.287-0.705,2.439-1.562,3.243
						C60.785,87.629,59.111,88.266,57.381,88.266z"/>
				</g>
				<g>
					<path fill="#FABE28" d="M69.391,88.015h-3.758V73.523h3.758V88.015z"/>
				</g>
				<g>
					<path fill="#FABE28" d="M79.275,88.015h-3.715V76.776h-4.375v-3.253h12.463v3.253h-4.373V88.015z"/>
				</g>
				<g>
					<path fill="#FABE28" d="M93.686,88.015h-3.736v-5.542l-5.497-8.949h4.101l3.35,5.367l3.35-5.367h3.979l-5.543,8.95v5.541
						H93.686z"/>
				</g>
			</g>
		</g>
	</g>
</g>
</svg>
