<svg viewBox="0 0 217 63" fill="none" xmlns="http://www.w3.org/2000/svg">
    <path d="M71.248 45.903h2.391c1.86 0 3.361-1.706 3.361-3.81V11.81C77 9.705 75.5 8 73.639 8H14.361C12.501 8 11 9.705 11 11.81v30.283c0 2.104 1.5 3.81 3.361 3.81h39.502c.41 0 .81.17 1.11.478L69.548 61l.02-13.203c0-1.047.75-1.904 1.68-1.904v.01Z" fill="#070508" stroke="#fff" stroke-width="3" stroke-linecap="round" stroke-linejoin="round"/>
    <path d="M6.11 39.11H3.57C1.6 39.11 0 37.35 0 35.18V3.93C0 1.76 1.6 0 3.57 0h63.04c1.97 0 3.57 1.76 3.57 3.93v31.25c0 2.17-1.6 3.93-3.57 3.93H24.6c-.44 0-.86.18-1.18.49L7.92 54.69 7.9 41.07c0-1.08-.8-1.96-1.79-1.96Z" fill="#34D399"/>
    <path d="m41.61 8.59-11.76 5.06 14.7 6.12-17.53 5.99" stroke="#070508" stroke-width="1.5" stroke-miterlimit="10"/>
    <path d="M27.02 30.11a4.35 4.35 0 1 0 0-8.7 4.35 4.35 0 0 0 0 8.7ZM44.2 22.99a3.3 3.3 0 1 0 0-6.6 3.3 3.3 0 0 0 0 6.6ZM30.21 15.95a2.39 2.39 0 1 0 0-4.78 2.39 2.39 0 0 0 0 4.78ZM41.56 10.29a1.78 1.78 0 1 0 0-3.56 1.78 1.78 0 0 0 0 3.56Z" fill="#070508"/>
    <path d="M92.2 23V5.315h-5.925V2h15.315v3.315h-5.925V23H92.2Zm13.223 0V2h9.135c1.72 0 3.08.3 4.08.9 1 .6 1.71 1.385 2.13 2.355a7.4 7.4 0 0 1 .645 3.06c0 .81-.155 1.62-.465 2.43a5.993 5.993 0 0 1-1.455 2.175c-.65.63-1.485 1.085-2.505 1.365l4.26 8.715h-3.885l-4.095-8.31h-4.38V23h-3.465Zm3.465-11.55h5.73c.81 0 1.45-.15 1.92-.45.48-.3.82-.685 1.02-1.155a3.754 3.754 0 0 0 .015-2.91c-.18-.48-.51-.88-.99-1.2-.47-.33-1.125-.495-1.965-.495h-5.73v6.21ZM123.815 23l7.815-21h3.27l7.815 21h-3.675l-1.695-4.68H129.2L127.535 23h-3.72Zm6.495-7.815h5.895l-2.31-6.345-.21-.6c-.08-.23-.16-.455-.24-.675a5.6 5.6 0 0 1-.18-.615c-.05.18-.115.385-.195.615-.07.22-.145.445-.225.675l-.21.6-2.325 6.345Zm22.055 8.175c-1.28 0-2.445-.22-3.495-.66a7.919 7.919 0 0 1-2.67-1.86 7.818 7.818 0 0 1-1.635-2.79l3.165-1.185c.44.96 1.07 1.74 1.89 2.34.82.59 1.765.885 2.835.885 1.12 0 2.02-.25 2.7-.75.68-.5 1.02-1.23 1.02-2.19 0-.66-.2-1.21-.6-1.65-.4-.45-.935-.83-1.605-1.14-.67-.32-1.405-.62-2.205-.9a50.64 50.64 0 0 1-2.28-.885c-.77-.32-1.47-.71-2.1-1.17a5.617 5.617 0 0 1-1.53-1.725c-.38-.69-.57-1.53-.57-2.52 0-1 .27-1.915.81-2.745.54-.84 1.32-1.51 2.34-2.01 1.02-.51 2.25-.765 3.69-.765 1.19 0 2.24.195 3.15.585.91.38 1.66.905 2.25 1.575a5.689 5.689 0 0 1 1.245 2.235l-3.12 1.035c-.27-.61-.71-1.125-1.32-1.545-.6-.43-1.405-.645-2.415-.645-.98 0-1.745.205-2.295.615-.55.4-.825.965-.825 1.695 0 .52.185.96.555 1.32.37.35.865.66 1.485.93.63.27 1.32.54 2.07.81.8.29 1.595.61 2.385.96.8.35 1.53.78 2.19 1.29.67.51 1.2 1.14 1.59 1.89.4.75.6 1.665.6 2.745 0 1.32-.32 2.445-.96 3.375-.64.92-1.515 1.625-2.625 2.115-1.1.49-2.34.735-3.72.735Zm18.252 0c-1.28 0-2.445-.22-3.495-.66a7.919 7.919 0 0 1-2.67-1.86 7.818 7.818 0 0 1-1.635-2.79l3.165-1.185c.44.96 1.07 1.74 1.89 2.34.82.59 1.765.885 2.835.885 1.12 0 2.02-.25 2.7-.75.68-.5 1.02-1.23 1.02-2.19 0-.66-.2-1.21-.6-1.65-.4-.45-.935-.83-1.605-1.14-.67-.32-1.405-.62-2.205-.9a50.64 50.64 0 0 1-2.28-.885c-.77-.32-1.47-.71-2.1-1.17a5.617 5.617 0 0 1-1.53-1.725c-.38-.69-.57-1.53-.57-2.52 0-1 .27-1.915.81-2.745.54-.84 1.32-1.51 2.34-2.01 1.02-.51 2.25-.765 3.69-.765 1.19 0 2.24.195 3.15.585.91.38 1.66.905 2.25 1.575a5.689 5.689 0 0 1 1.245 2.235l-3.12 1.035c-.27-.61-.71-1.125-1.32-1.545-.6-.43-1.405-.645-2.415-.645-.98 0-1.745.205-2.295.615-.55.4-.825.965-.825 1.695 0 .52.185.96.555 1.32.37.35.865.66 1.485.93.63.27 1.32.54 2.07.81.8.29 1.595.61 2.385.96.8.35 1.53.78 2.19 1.29.67.51 1.2 1.14 1.59 1.89.4.75.6 1.665.6 2.745 0 1.32-.32 2.445-.96 3.375-.64.92-1.515 1.625-2.625 2.115-1.1.49-2.34.735-3.72.735Zm11.652-.36V2h13.62v3.27h-10.155v5.25h6.225v3.27h-6.225v5.91h10.785V23h-14.25Zm18.34 0V2h3.3l8.61 13.23c.13.2.275.445.435.735.17.28.315.555.435.825-.01-.24-.025-.51-.045-.81-.01-.3-.015-.55-.015-.75V2h3.45v21h-3.165l-8.775-13.29c-.12-.2-.265-.445-.435-.735-.16-.29-.305-.555-.435-.795.04.24.06.5.06.78.01.27.015.52.015.75V23h-3.435ZM94.24 53.36c-1.28 0-2.445-.22-3.495-.66a7.919 7.919 0 0 1-2.67-1.86 7.818 7.818 0 0 1-1.635-2.79l3.165-1.185c.44.96 1.07 1.74 1.89 2.34.82.59 1.765.885 2.835.885 1.12 0 2.02-.25 2.7-.75.68-.5 1.02-1.23 1.02-2.19 0-.66-.2-1.21-.6-1.65-.4-.45-.935-.83-1.605-1.14-.67-.32-1.405-.62-2.205-.9a50.64 50.64 0 0 1-2.28-.885c-.77-.32-1.47-.71-2.1-1.17a5.617 5.617 0 0 1-1.53-1.725c-.38-.69-.57-1.53-.57-2.52 0-1 .27-1.915.81-2.745.54-.84 1.32-1.51 2.34-2.01 1.02-.51 2.25-.765 3.69-.765 1.19 0 2.24.195 3.15.585.91.38 1.66.905 2.25 1.575a5.689 5.689 0 0 1 1.245 2.235l-3.12 1.035c-.27-.61-.71-1.125-1.32-1.545-.6-.43-1.405-.645-2.415-.645-.98 0-1.745.205-2.295.615-.55.4-.825.965-.825 1.695 0 .52.185.96.555 1.32.37.35.865.66 1.485.93.63.27 1.32.54 2.07.81.8.29 1.595.61 2.385.96.8.35 1.53.78 2.19 1.29.67.51 1.2 1.14 1.59 1.89.4.75.6 1.665.6 2.745 0 1.32-.32 2.445-.96 3.375-.64.92-1.515 1.625-2.625 2.115-1.1.49-2.34.735-3.72.735Zm19.587-.03c-1.62 0-2.99-.31-4.11-.93a7.65 7.65 0 0 1-2.715-2.49 11.245 11.245 0 0 1-1.485-3.495 16.698 16.698 0 0 1-.465-3.915c0-1.27.16-2.545.48-3.825.32-1.28.825-2.45 1.515-3.51a7.813 7.813 0 0 1 2.715-2.55c1.12-.65 2.475-.975 4.065-.975 1.31 0 2.44.21 3.39.63.95.42 1.735.96 2.355 1.62.63.66 1.105 1.355 1.425 2.085l-3.09 1.47c-.34-.5-.695-.94-1.065-1.32a3.96 3.96 0 0 0-1.29-.885c-.48-.21-1.055-.315-1.725-.315-.97 0-1.79.23-2.46.69a5.035 5.035 0 0 0-1.605 1.815c-.39.75-.675 1.57-.855 2.46-.18.88-.27 1.75-.27 2.61 0 .91.1 1.815.3 2.715.2.89.51 1.7.93 2.43.42.72.955 1.3 1.605 1.74.66.43 1.445.645 2.355.645.98 0 1.79-.245 2.43-.735.65-.5 1.215-1.145 1.695-1.935l3.165 1.185c-.42.91-.96 1.725-1.62 2.445a7.19 7.19 0 0 1-2.4 1.71c-.93.42-2.02.63-3.27.63Zm19.021.03c-1.66 0-3.07-.315-4.23-.945-1.16-.64-2.095-1.485-2.805-2.535-.71-1.06-1.23-2.23-1.56-3.51a15.9 15.9 0 0 1-.48-3.87c0-1.3.16-2.59.48-3.87.33-1.28.85-2.445 1.56-3.495a7.792 7.792 0 0 1 2.805-2.535c1.16-.64 2.57-.96 4.23-.96 1.68 0 3.095.32 4.245.96a7.792 7.792 0 0 1 2.805 2.535 10.907 10.907 0 0 1 1.545 3.495c.32 1.28.48 2.57.48 3.87 0 1.3-.16 2.59-.48 3.87-.32 1.28-.835 2.45-1.545 3.51-.71 1.05-1.645 1.895-2.805 2.535-1.15.63-2.565.945-4.245.945Zm0-3.315c1.02 0 1.875-.23 2.565-.69a5.275 5.275 0 0 0 1.695-1.815c.43-.76.74-1.58.93-2.46.19-.88.285-1.74.285-2.58 0-.91-.095-1.81-.285-2.7a7.975 7.975 0 0 0-.915-2.445c-.42-.74-.98-1.33-1.68-1.77-.7-.44-1.565-.66-2.595-.66-1.02 0-1.88.235-2.58.705a5.275 5.275 0 0 0-1.695 1.815c-.43.75-.74 1.57-.93 2.46-.19.89-.285 1.755-.285 2.595 0 .9.095 1.795.285 2.685.2.89.51 1.705.93 2.445a5.09 5.09 0 0 0 1.695 1.755c.7.44 1.56.66 2.58.66Zm21.423 3.315c-1.75 0-3.225-.325-4.425-.975a6.398 6.398 0 0 1-2.73-2.835c-.61-1.24-.915-2.75-.915-4.53V32h3.465v13.02c0 1.68.36 2.94 1.08 3.78.73.83 1.905 1.245 3.525 1.245 1.03 0 1.885-.175 2.565-.525.69-.35 1.205-.89 1.545-1.62.34-.74.51-1.7.51-2.88V32h3.45v13.02c0 1.45-.2 2.7-.6 3.75-.39 1.05-.945 1.915-1.665 2.595a6.824 6.824 0 0 1-2.565 1.515c-.98.32-2.06.48-3.24.48Zm17.763-.36V35.315h-5.925V32h15.315v3.315h-5.925V53h-3.465Z" fill="#070508"/>
    <path d="M71.248 45.903h2.391c1.86 0 3.361-1.706 3.361-3.81V11.81C77 9.705 75.5 8 73.639 8H14.361C12.501 8 11 9.705 11 11.81v30.283c0 2.104 1.5 3.81 3.361 3.81h39.502c.41 0 .81.17 1.11.478L69.548 61l.02-13.203c0-1.047.75-1.904 1.68-1.904v.01Z" fill="#070508" stroke="#fff" stroke-width="3" stroke-linecap="round" stroke-linejoin="round"/>
    <path d="M6.11 39.11H3.57C1.6 39.11 0 37.35 0 35.18V3.93C0 1.76 1.6 0 3.57 0h63.04c1.97 0 3.57 1.76 3.57 3.93v31.25c0 2.17-1.6 3.93-3.57 3.93H24.6c-.44 0-.86.18-1.18.49L7.92 54.69 7.9 41.07c0-1.08-.8-1.96-1.79-1.96Z" fill="#34D399"/>
    <path d="m41.61 8.59-11.76 5.06 14.7 6.12-17.53 5.99" stroke="#070508" stroke-width="1.5" stroke-miterlimit="10"/>
    <path d="M27.02 30.11a4.35 4.35 0 1 0 0-8.7 4.35 4.35 0 0 0 0 8.7ZM44.2 22.99a3.3 3.3 0 1 0 0-6.6 3.3 3.3 0 0 0 0 6.6ZM30.21 15.95a2.39 2.39 0 1 0 0-4.78 2.39 2.39 0 0 0 0 4.78ZM41.56 10.29a1.78 1.78 0 1 0 0-3.56 1.78 1.78 0 0 0 0 3.56Z" fill="#070508"/>
    <path d="M92.2 23V5.315h-5.925V2h15.315v3.315h-5.925V23H92.2Zm13.223 0V2h9.135c1.72 0 3.08.3 4.08.9 1 .6 1.71 1.385 2.13 2.355a7.4 7.4 0 0 1 .645 3.06c0 .81-.155 1.62-.465 2.43a5.993 5.993 0 0 1-1.455 2.175c-.65.63-1.485 1.085-2.505 1.365l4.26 8.715h-3.885l-4.095-8.31h-4.38V23h-3.465Zm3.465-11.55h5.73c.81 0 1.45-.15 1.92-.45.48-.3.82-.685 1.02-1.155a3.754 3.754 0 0 0 .015-2.91c-.18-.48-.51-.88-.99-1.2-.47-.33-1.125-.495-1.965-.495h-5.73v6.21ZM123.815 23l7.815-21h3.27l7.815 21h-3.675l-1.695-4.68H129.2L127.535 23h-3.72Zm6.495-7.815h5.895l-2.31-6.345-.21-.6c-.08-.23-.16-.455-.24-.675a5.6 5.6 0 0 1-.18-.615c-.05.18-.115.385-.195.615-.07.22-.145.445-.225.675l-.21.6-2.325 6.345Zm22.055 8.175c-1.28 0-2.445-.22-3.495-.66a7.919 7.919 0 0 1-2.67-1.86 7.818 7.818 0 0 1-1.635-2.79l3.165-1.185c.44.96 1.07 1.74 1.89 2.34.82.59 1.765.885 2.835.885 1.12 0 2.02-.25 2.7-.75.68-.5 1.02-1.23 1.02-2.19 0-.66-.2-1.21-.6-1.65-.4-.45-.935-.83-1.605-1.14-.67-.32-1.405-.62-2.205-.9a50.64 50.64 0 0 1-2.28-.885c-.77-.32-1.47-.71-2.1-1.17a5.617 5.617 0 0 1-1.53-1.725c-.38-.69-.57-1.53-.57-2.52 0-1 .27-1.915.81-2.745.54-.84 1.32-1.51 2.34-2.01 1.02-.51 2.25-.765 3.69-.765 1.19 0 2.24.195 3.15.585.91.38 1.66.905 2.25 1.575a5.689 5.689 0 0 1 1.245 2.235l-3.12 1.035c-.27-.61-.71-1.125-1.32-1.545-.6-.43-1.405-.645-2.415-.645-.98 0-1.745.205-2.295.615-.55.4-.825.965-.825 1.695 0 .52.185.96.555 1.32.37.35.865.66 1.485.93.63.27 1.32.54 2.07.81.8.29 1.595.61 2.385.96.8.35 1.53.78 2.19 1.29.67.51 1.2 1.14 1.59 1.89.4.75.6 1.665.6 2.745 0 1.32-.32 2.445-.96 3.375-.64.92-1.515 1.625-2.625 2.115-1.1.49-2.34.735-3.72.735Zm18.252 0c-1.28 0-2.445-.22-3.495-.66a7.919 7.919 0 0 1-2.67-1.86 7.818 7.818 0 0 1-1.635-2.79l3.165-1.185c.44.96 1.07 1.74 1.89 2.34.82.59 1.765.885 2.835.885 1.12 0 2.02-.25 2.7-.75.68-.5 1.02-1.23 1.02-2.19 0-.66-.2-1.21-.6-1.65-.4-.45-.935-.83-1.605-1.14-.67-.32-1.405-.62-2.205-.9a50.64 50.64 0 0 1-2.28-.885c-.77-.32-1.47-.71-2.1-1.17a5.617 5.617 0 0 1-1.53-1.725c-.38-.69-.57-1.53-.57-2.52 0-1 .27-1.915.81-2.745.54-.84 1.32-1.51 2.34-2.01 1.02-.51 2.25-.765 3.69-.765 1.19 0 2.24.195 3.15.585.91.38 1.66.905 2.25 1.575a5.689 5.689 0 0 1 1.245 2.235l-3.12 1.035c-.27-.61-.71-1.125-1.32-1.545-.6-.43-1.405-.645-2.415-.645-.98 0-1.745.205-2.295.615-.55.4-.825.965-.825 1.695 0 .52.185.96.555 1.32.37.35.865.66 1.485.93.63.27 1.32.54 2.07.81.8.29 1.595.61 2.385.96.8.35 1.53.78 2.19 1.29.67.51 1.2 1.14 1.59 1.89.4.75.6 1.665.6 2.745 0 1.32-.32 2.445-.96 3.375-.64.92-1.515 1.625-2.625 2.115-1.1.49-2.34.735-3.72.735Zm11.652-.36V2h13.62v3.27h-10.155v5.25h6.225v3.27h-6.225v5.91h10.785V23h-14.25Zm18.34 0V2h3.3l8.61 13.23c.13.2.275.445.435.735.17.28.315.555.435.825-.01-.24-.025-.51-.045-.81-.01-.3-.015-.55-.015-.75V2h3.45v21h-3.165l-8.775-13.29c-.12-.2-.265-.445-.435-.735-.16-.29-.305-.555-.435-.795.04.24.06.5.06.78.01.27.015.52.015.75V23h-3.435ZM94.24 53.36c-1.28 0-2.445-.22-3.495-.66a7.919 7.919 0 0 1-2.67-1.86 7.818 7.818 0 0 1-1.635-2.79l3.165-1.185c.44.96 1.07 1.74 1.89 2.34.82.59 1.765.885 2.835.885 1.12 0 2.02-.25 2.7-.75.68-.5 1.02-1.23 1.02-2.19 0-.66-.2-1.21-.6-1.65-.4-.45-.935-.83-1.605-1.14-.67-.32-1.405-.62-2.205-.9a50.64 50.64 0 0 1-2.28-.885c-.77-.32-1.47-.71-2.1-1.17a5.617 5.617 0 0 1-1.53-1.725c-.38-.69-.57-1.53-.57-2.52 0-1 .27-1.915.81-2.745.54-.84 1.32-1.51 2.34-2.01 1.02-.51 2.25-.765 3.69-.765 1.19 0 2.24.195 3.15.585.91.38 1.66.905 2.25 1.575a5.689 5.689 0 0 1 1.245 2.235l-3.12 1.035c-.27-.61-.71-1.125-1.32-1.545-.6-.43-1.405-.645-2.415-.645-.98 0-1.745.205-2.295.615-.55.4-.825.965-.825 1.695 0 .52.185.96.555 1.32.37.35.865.66 1.485.93.63.27 1.32.54 2.07.81.8.29 1.595.61 2.385.96.8.35 1.53.78 2.19 1.29.67.51 1.2 1.14 1.59 1.89.4.75.6 1.665.6 2.745 0 1.32-.32 2.445-.96 3.375-.64.92-1.515 1.625-2.625 2.115-1.1.49-2.34.735-3.72.735Zm19.587-.03c-1.62 0-2.99-.31-4.11-.93a7.65 7.65 0 0 1-2.715-2.49 11.245 11.245 0 0 1-1.485-3.495 16.698 16.698 0 0 1-.465-3.915c0-1.27.16-2.545.48-3.825.32-1.28.825-2.45 1.515-3.51a7.813 7.813 0 0 1 2.715-2.55c1.12-.65 2.475-.975 4.065-.975 1.31 0 2.44.21 3.39.63.95.42 1.735.96 2.355 1.62.63.66 1.105 1.355 1.425 2.085l-3.09 1.47c-.34-.5-.695-.94-1.065-1.32a3.96 3.96 0 0 0-1.29-.885c-.48-.21-1.055-.315-1.725-.315-.97 0-1.79.23-2.46.69a5.035 5.035 0 0 0-1.605 1.815c-.39.75-.675 1.57-.855 2.46-.18.88-.27 1.75-.27 2.61 0 .91.1 1.815.3 2.715.2.89.51 1.7.93 2.43.42.72.955 1.3 1.605 1.74.66.43 1.445.645 2.355.645.98 0 1.79-.245 2.43-.735.65-.5 1.215-1.145 1.695-1.935l3.165 1.185c-.42.91-.96 1.725-1.62 2.445a7.19 7.19 0 0 1-2.4 1.71c-.93.42-2.02.63-3.27.63Zm19.021.03c-1.66 0-3.07-.315-4.23-.945-1.16-.64-2.095-1.485-2.805-2.535-.71-1.06-1.23-2.23-1.56-3.51a15.9 15.9 0 0 1-.48-3.87c0-1.3.16-2.59.48-3.87.33-1.28.85-2.445 1.56-3.495a7.792 7.792 0 0 1 2.805-2.535c1.16-.64 2.57-.96 4.23-.96 1.68 0 3.095.32 4.245.96a7.792 7.792 0 0 1 2.805 2.535 10.907 10.907 0 0 1 1.545 3.495c.32 1.28.48 2.57.48 3.87 0 1.3-.16 2.59-.48 3.87-.32 1.28-.835 2.45-1.545 3.51-.71 1.05-1.645 1.895-2.805 2.535-1.15.63-2.565.945-4.245.945Zm0-3.315c1.02 0 1.875-.23 2.565-.69a5.275 5.275 0 0 0 1.695-1.815c.43-.76.74-1.58.93-2.46.19-.88.285-1.74.285-2.58 0-.91-.095-1.81-.285-2.7a7.975 7.975 0 0 0-.915-2.445c-.42-.74-.98-1.33-1.68-1.77-.7-.44-1.565-.66-2.595-.66-1.02 0-1.88.235-2.58.705a5.275 5.275 0 0 0-1.695 1.815c-.43.75-.74 1.57-.93 2.46-.19.89-.285 1.755-.285 2.595 0 .9.095 1.795.285 2.685.2.89.51 1.705.93 2.445a5.09 5.09 0 0 0 1.695 1.755c.7.44 1.56.66 2.58.66Zm21.423 3.315c-1.75 0-3.225-.325-4.425-.975a6.398 6.398 0 0 1-2.73-2.835c-.61-1.24-.915-2.75-.915-4.53V32h3.465v13.02c0 1.68.36 2.94 1.08 3.78.73.83 1.905 1.245 3.525 1.245 1.03 0 1.885-.175 2.565-.525.69-.35 1.205-.89 1.545-1.62.34-.74.51-1.7.51-2.88V32h3.45v13.02c0 1.45-.2 2.7-.6 3.75-.39 1.05-.945 1.915-1.665 2.595a6.824 6.824 0 0 1-2.565 1.515c-.98.32-2.06.48-3.24.48Zm17.763-.36V35.315h-5.925V32h15.315v3.315h-5.925V53h-3.465Z" fill="#070508"/>
</svg>
