<svg viewBox="0 0 217 63" fill="none" xmlns="http://www.w3.org/2000/svg">
    <path d="M71.248 45.903h2.391c1.86 0 3.361-1.706 3.361-3.81V11.81C77 9.705 75.5 8 73.639 8H14.361C12.501 8 11 9.705 11 11.81v30.283c0 2.104 1.5 3.81 3.361 3.81h39.502c.41 0 .81.17 1.11.478L69.548 61l.02-13.203c0-1.047.75-1.904 1.68-1.904v.01Z" fill="#070508" stroke="#070508" stroke-width="3" stroke-linecap="round" stroke-linejoin="round"/>
    <path d="M6.11 39.11H3.57C1.6 39.11 0 37.35 0 35.18V3.93C0 1.76 1.6 0 3.57 0h63.04c1.97 0 3.57 1.76 3.57 3.93v31.25c0 2.17-1.6 3.93-3.57 3.93H24.6c-.44 0-.86.18-1.18.49L7.92 54.69 7.9 41.07c0-1.08-.8-1.96-1.79-1.96Z" fill="#34D399"/>
    <path d="m41.61 8.59-11.76 5.06 14.7 6.12-17.53 5.99" stroke="#070508" stroke-width="1.5" stroke-miterlimit="10"/>
    <path d="M27.02 30.11a4.35 4.35 0 1 0 0-8.7 4.35 4.35 0 0 0 0 8.7ZM44.2 22.99a3.3 3.3 0 1 0 0-6.6 3.3 3.3 0 0 0 0 6.6ZM30.21 15.95a2.39 2.39 0 1 0 0-4.78 2.39 2.39 0 0 0 0 4.78ZM41.56 10.29a1.78 1.78 0 1 0 0-3.56 1.78 1.78 0 0 0 0 3.56Z" fill="#070508"/>
    <path d="M71.248 45.903h2.391c1.86 0 F3.361-1.706 3.361-3.81V11.81C77 9.705 75.5 8 73.639 8H14.361C12.501 8 11 9.705 11 11.81v30.283c0 2.104 1.5 3.81 3.361 3.81h39.502c.41 0 .81.17 1.11.478L69.548 61l.02-13.203c0-1.047.75-1.904 1.68-1.904v.01Z" fill="#070508" stroke="#070508" stroke-width="3" stroke-linecap="round" stroke-linejoin="round"/>
    <path d="M6.11 39.11H3.57C1.6 39.11 0 37.35 0 35.18V3.93C0 1.76 1.6 0 3.57 0h63.04c1.97 0 3.57 1.76 3.57 3.93v31.25c0 2.17-1.6 3.93-3.57 3.93H24.6c-.44 0-.86.18-1.18.49L7.92 54.69 7.9 41.07c0-1.08-.8-1.96-1.79-1.96Z" fill="#34D399"/>
    <path d="m41.61 8.59-11.76 5.06 14.7 6.12-17.53 5.99" stroke="#070508" stroke-width="1.5" stroke-miterlimit="10"/>
    <path d="M27.02 30.11a4.35 4.35 0 1 0 0-8.7 4.35 4.35 0 0 0 0 8.7ZM44.2 22.99a3.3 3.3 0 1 0 0-6.6 3.3 3.3 0 0 0 0 6.6ZM30.21 15.95a2.39 2.39 0 1 0 0-4.78 2.39 2.39 0 0 0 0 4.78ZM41.56 10.29a1.78 1.78 0 1 0 0-3.56 1.78 1.78 0 0 0 0 3.56Z" fill="#070508"/>
</svg>
